<svg width="43" height="43" viewBox="0 0 43 43" fill="none" xmlns="http://www.w3.org/2000/svg">
<g clip-path="url(#clip0_185_153)">
<path d="M16.0415 30.2502C14.6142 30.2502 13.4711 31.4062 13.4711 32.8335C13.4711 34.2608 14.6142 35.4168 16.0415 35.4168C17.4688 35.4168 18.6248 34.2608 18.6248 32.8335C18.6248 31.4062 17.4688 30.2502 16.0415 30.2502ZM8.2915 9.5835V12.1668H10.8748L15.5184 21.9641L13.7746 25.1287C13.5744 25.5033 13.4582 25.9231 13.4582 26.3752C13.4582 27.8025 14.6142 28.9585 16.0415 28.9585H31.5415V26.3752H16.5905C16.4096 26.3752 16.2675 26.2331 16.2675 26.0522C16.2675 25.9941 16.2805 25.9425 16.3063 25.8972L17.4623 23.7918H27.0853C28.054 23.7918 28.9 23.2558 29.3457 22.4614L33.9634 14.0785C34.0667 13.8977 34.1248 13.6845 34.1248 13.4585C34.1248 13.1159 33.9888 12.7874 33.7465 12.5452C33.5043 12.3029 33.1757 12.1668 32.8332 12.1668H13.7359L12.5088 9.5835H8.2915ZM28.9582 30.2502C27.5309 30.2502 26.3878 31.4062 26.3878 32.8335C26.3878 34.2608 27.5309 35.4168 28.9582 35.4168C30.3855 35.4168 31.5415 34.2608 31.5415 32.8335C31.5415 31.4062 30.3855 30.2502 28.9582 30.2502Z" fill="#53A6AA"/>
</g>
<rect x="0.5" y="0.5" width="42" height="42" rx="2.5" stroke="#53A6AA" stroke-opacity="0.33"/>
<defs>
<clipPath id="clip0_185_153">
<rect width="31" height="31" fill="white" transform="translate(7 7)"/>
</clipPath>
</defs>
</svg>
