<svg width="82" height="82" viewBox="0 0 82 82" fill="none" xmlns="http://www.w3.org/2000/svg">
<path fill-rule="evenodd" clip-rule="evenodd" d="M52.0907 29.2835C52.9911 29.0513 53.9119 29.5819 54.1624 30.4774C54.4914 31.653 54.6667 32.8908 54.6667 34.1668C54.6667 41.7147 48.5479 47.8334 41 47.8334C33.4521 47.8334 27.3333 41.7147 27.3333 34.1668C27.3333 32.8908 27.5086 31.653 27.8376 30.4774C28.0881 29.5819 29.0089 29.0513 29.9093 29.2835C36.2674 30.9228 45.7326 30.9228 52.0907 29.2835ZM30.8161 32.9943C30.7726 33.3787 30.75 33.7699 30.75 34.1668C30.75 39.8277 35.3391 44.4168 41 44.4168C46.6609 44.4168 51.25 39.8277 51.25 34.1668C51.25 33.7699 51.2275 33.3787 51.1839 32.9943C45.0054 34.2414 36.9946 34.2414 30.8161 32.9943ZM32.4583 48.6698C22.2311 50.4556 10.25 55.0134 10.25 61.5003V71.7503H71.75V61.5003C71.75 55.0134 59.7689 50.4556 49.5417 48.6698V56.3751H32.4583V48.6698ZM22.2083 71.7501V56.3751H25.625V71.7501H22.2083ZM58.0833 56.3751V71.7501H61.5V56.3751H58.0833Z" fill="#161820"/>
<path fill-rule="evenodd" clip-rule="evenodd" d="M42.7085 10.3486V17.9042C42.7085 18.8475 41.9437 19.6125 41.0002 19.6125C40.0566 19.6125 39.2918 18.8475 39.2918 17.9042V10.25C37.3549 10.3679 35.6491 10.792 34.1668 11.4288V21.3209C34.1668 22.2642 33.402 23.0292 32.4585 23.0292C31.515 23.0292 30.7502 22.2642 30.7502 21.3209V13.555C28.4091 15.5688 27.0614 18.1787 26.6314 20.4667C26.6163 20.5468 26.6023 20.6268 26.5895 20.7062C26.5786 20.717 26.5676 20.7277 26.5569 20.7385C26.4045 21.8135 26.4882 22.6981 26.7065 23.3061C27.0253 24.1941 26.5637 25.1725 25.6757 25.4912C24.7877 25.81 23.8095 25.3484 23.4908 24.4604C23.4622 24.3812 23.4352 24.301 23.4098 24.2201C13.4893 37.1732 68.5653 37.1662 58.5743 24.1989C58.5483 24.2826 58.5208 24.3656 58.492 24.4481C58.18 25.3385 57.2052 25.8074 56.3149 25.4955C55.4243 25.1836 54.9554 24.2088 55.2675 23.3184C55.5148 22.6122 55.5863 21.731 55.4518 20.7559C55.4426 20.7491 55.4327 20.7419 55.4221 20.7344C55.0526 18.4247 53.6487 15.8704 51.2502 13.8574V21.3209C51.2502 22.2642 50.4853 23.0292 49.5418 23.0292C48.5983 23.0292 47.8335 22.2642 47.8335 21.3209V11.7231C47.1883 11.4322 46.5032 11.1764 45.7787 10.9619C44.8263 10.6829 43.803 10.4733 42.7085 10.3486Z" fill="#161820"/>
</svg>
