<svg width="71" height="71" viewBox="0 0 71 71" fill="none" xmlns="http://www.w3.org/2000/svg">
<path d="M65.3163 7.1001H5.6798C4.5012 7.1001 3.5498 8.04795 3.5498 9.2301V17.7501H67.4498V9.2301C67.4498 8.95009 67.3946 8.67282 67.2873 8.41416C67.1801 8.15551 67.0229 7.92054 66.8247 7.72271C66.6265 7.52487 66.3913 7.36805 66.1325 7.26122C65.8736 7.15438 65.5963 7.09963 65.3163 7.1001ZM7.0998 58.9301C7.0998 61.6636 9.33275 63.9001 12.0663 63.9001H58.9263C61.6598 63.9001 63.8963 61.6601 63.8963 58.9301V21.3001H7.0998V58.9301ZM24.8498 28.4001H46.1498V35.5001H24.8498V28.4001Z" fill="#161820"/>
</svg>
