<svg width="58" height="58" viewBox="0 0 58 58" fill="none" xmlns="http://www.w3.org/2000/svg">
<g clip-path="url(#clip0_185_226)">
<path d="M51.741 10.0024L29.991 0.21246C29.6795 0.0724117 29.3418 0 29.0002 0C28.6586 0 28.3209 0.0724117 28.0093 0.21246L6.25934 10.0024C5.83458 10.1933 5.47404 10.5029 5.22109 10.8939C4.96814 11.2849 4.83354 11.7407 4.8335 12.2064V34.8288C4.83151 36.5499 5.19002 38.2524 5.88596 39.8266C6.58189 41.4008 7.59982 42.8117 8.87417 43.9686L20.9575 54.892C23.1587 56.8919 26.0261 58 29.0002 58C31.9742 58 34.8416 56.8919 37.0428 54.892L49.1262 43.9686C50.4005 42.8117 51.4185 41.4008 52.1144 39.8266C52.8103 38.2524 53.1688 36.5499 53.1668 34.8288V12.2064C53.1668 11.7407 53.0322 11.2849 52.7793 10.8939C52.5263 10.5029 52.1658 10.1933 51.741 10.0024ZM40.3827 23.4584L28.2993 35.5417C27.8461 35.9948 27.2316 36.2493 26.5908 36.2493C25.9499 36.2493 25.3354 35.9948 24.8822 35.5417L17.6322 28.2917C17.192 27.8359 16.9484 27.2255 16.9539 26.5918C16.9594 25.9582 17.2135 25.3521 17.6616 24.904C18.1097 24.4559 18.7158 24.2018 19.3495 24.1962C19.9831 24.1907 20.5935 24.4343 21.0493 24.8745L26.5835 30.416L36.9583 20.0412C37.414 19.601 38.0245 19.3574 38.6581 19.3629C39.2918 19.3684 39.8979 19.6226 40.346 20.0706C40.7941 20.5187 41.0482 21.1248 41.0537 21.7585C41.0592 22.3921 40.8156 23.0026 40.3754 23.4584H40.3827Z" fill="#161820"/>
</g>
<defs>
<clipPath id="clip0_185_226">
<rect width="58" height="58" fill="white"/>
</clipPath>
</defs>
</svg>
