<svg width="73" height="73" viewBox="0 0 73 73" fill="none" xmlns="http://www.w3.org/2000/svg">
<g clip-path="url(#clip0_185_212)">
<path d="M49.412 23.5883C47.7162 21.8937 45.7029 20.55 43.4874 19.6341C41.2719 18.7181 38.8976 18.2479 36.5002 18.2502V36.5002L23.5883 49.412C30.721 56.5447 42.2641 56.5447 49.3968 49.412C56.5295 42.2793 56.5295 30.721 49.412 23.5883ZM36.5002 6.0835C19.695 6.0835 6.0835 19.695 6.0835 36.5002C6.0835 53.3054 19.695 66.9168 36.5002 66.9168C53.3054 66.9168 66.9168 53.2902 66.9168 36.5002C66.9168 19.695 53.3054 6.0835 36.5002 6.0835ZM36.5002 60.8335C23.056 60.8335 12.1668 49.9443 12.1668 36.5002C12.1668 23.056 23.056 12.1668 36.5002 12.1668C49.9443 12.1668 60.8335 23.056 60.8335 36.5002C60.8335 49.9443 49.9443 60.8335 36.5002 60.8335Z" fill="#161820"/>
</g>
<defs>
<clipPath id="clip0_185_212">
<rect width="73" height="73" fill="white"/>
</clipPath>
</defs>
</svg>
