<svg width="67" height="67" viewBox="0 0 67 67" fill="none" xmlns="http://www.w3.org/2000/svg">
<path d="M7.22351 16.1426H16.5198C16.2671 14.5077 16.1411 12.8557 16.1429 11.2013V10.5942L17.6504 9.71478H3.53851C3.50764 11.6881 4.2606 13.5931 5.63226 15.012C6.10924 15.4589 6.64452 15.8392 7.22351 16.1426ZM19.4719 25.732H12.1229C10.6596 25.7549 9.21577 25.3939 7.93539 24.6851H4.62726C4.62726 25.6694 4.82114 26.6441 5.19783 27.5535C5.57452 28.463 6.12665 29.2893 6.82268 29.9853C8.22838 31.391 10.1349 32.1807 12.1229 32.1807H23.5129C21.905 30.2061 20.5477 28.04 19.4719 25.732ZM50.8573 11.2013C50.8591 12.8557 50.7331 14.5077 50.4804 16.1426H59.7766C60.3201 15.825 60.8198 15.4378 61.2632 14.991C62.6349 13.5721 63.3878 11.6671 63.3569 9.69385H49.3498L50.8573 10.5732V11.2013ZM17.776 17.1895C17.7662 17.1341 17.7662 17.0774 17.776 17.022C17.7658 17.0773 17.7658 17.1341 17.776 17.1895C17.776 17.1895 17.776 17.3151 17.776 17.3779C17.7862 17.3155 17.7862 17.2519 17.776 17.1895ZM19.9535 24.2663C20.0003 24.4094 20.0562 24.5493 20.121 24.6851L20.2466 24.9573V24.6851L19.9535 24.2663ZM4.62726 17.1895C4.62726 19.1774 5.41698 21.084 6.82268 22.4897C8.22838 23.8954 10.1349 24.6851 12.1229 24.6851H18.9904C17.9306 22.291 17.1778 19.7725 16.7501 17.1895H4.62726ZM48.0098 24.6851H54.8773C56.8652 24.6851 58.7718 23.8954 60.1775 22.4897C61.5832 21.084 62.3729 19.1774 62.3729 17.1895H50.2501C49.8223 19.7725 49.0696 22.291 48.0098 24.6851ZM54.8773 25.732H47.5282C46.4524 28.04 45.0951 30.2061 43.4873 32.1807H54.8773C56.8652 32.1807 58.7718 31.391 60.1775 29.9853C61.5832 28.5796 62.3729 26.6731 62.3729 24.6851H58.9601C57.7106 25.3764 56.3052 25.7368 54.8773 25.732Z" fill="#161820"/>
<path d="M20.2468 24.9574V25.0621C22.3169 29.469 25.3508 33.3544 29.1243 36.4312C29.795 36.9835 30.4938 37.5006 31.2181 37.9806C31.9299 38.4621 32.6628 38.9437 33.3118 39.3834C34.0656 38.9437 34.7984 38.4621 35.4056 37.9806C36.1298 37.5006 36.8287 36.9835 37.4993 36.4312C40.5685 33.9457 43.1522 30.9147 45.1206 27.4909C45.5812 26.6952 45.9999 25.8577 46.3978 25.0202V24.8946V25.0202L46.5234 24.7481V24.5806C47.1569 23.1687 47.6887 21.7133 48.1146 20.2256V20.0371C48.3659 19.1577 48.5543 18.2784 48.7218 17.3781C49.0931 15.4106 49.2823 13.4131 49.2871 11.4109L35.594 2.95212C34.9779 2.59146 34.2769 2.40137 33.5631 2.40137C32.8492 2.40137 32.1482 2.59146 31.5321 2.95212L17.1899 11.2015C17.1918 15.9551 18.2352 20.6505 20.2468 24.9574Z" fill="#161820"/>
<path d="M34.0236 40.3674L33.5002 40.6815L32.9767 40.3674C31.6584 39.6084 30.3923 38.762 29.187 37.834V44.8271H37.8133V37.834C36.608 38.762 35.3419 39.6084 34.0236 40.3674ZM47.3608 56.0705H19.6395C18.7991 56.0705 17.9928 56.403 17.3965 56.9953C16.8003 57.5876 16.4626 58.3917 16.457 59.2321V63.4196C16.457 63.5809 16.4891 63.7405 16.5514 63.8892C16.6138 64.0379 16.7051 64.1727 16.8201 64.2858C16.9351 64.3988 17.0714 64.4878 17.2212 64.5476C17.371 64.6074 17.5311 64.6368 17.6923 64.634H49.308C49.4692 64.6368 49.6294 64.6074 49.7791 64.5476C49.9289 64.4878 50.0652 64.3988 50.1802 64.2858C50.2952 64.1727 50.3865 64.0379 50.4489 63.8892C50.5112 63.7405 50.5433 63.5809 50.5433 63.4196V59.2321C50.5378 58.3917 50.2 57.5876 49.6038 56.9953C49.0075 56.403 48.2012 56.0705 47.3608 56.0705ZM24.9367 50.2499C24.5198 50.2499 24.1069 50.3324 23.722 50.4926C23.337 50.6528 22.9876 50.8875 22.6937 51.1833C22.3999 51.4791 22.1674 51.8301 22.0098 52.2161C21.8521 52.6021 21.7724 53.0155 21.7752 53.4324V54.919C21.765 54.9814 21.765 55.045 21.7752 55.1074H45.2042C45.2144 55.045 45.2144 54.9814 45.2042 54.919V53.4324C45.207 53.0172 45.1279 52.6056 44.9716 52.2209C44.8153 51.8363 44.5847 51.4862 44.293 51.1907C44.0014 50.8952 43.6544 50.66 43.2719 50.4986C42.8894 50.3372 42.4788 50.2527 42.0636 50.2499H24.9367ZM25.6277 48.5749V48.9309C25.6175 48.9933 25.6175 49.0569 25.6277 49.1193H41.3308C41.3409 49.0569 41.3409 48.9933 41.3308 48.9309V48.5749C41.3308 47.7364 40.9977 46.9323 40.4048 46.3394C39.8119 45.7465 39.0077 45.4134 38.1692 45.4134H28.7473C27.9161 45.4244 27.1227 45.7623 26.5388 46.354C25.9549 46.9458 25.6276 47.7436 25.6277 48.5749Z" fill="#161820"/>
</svg>
