<svg width="63" height="62" viewBox="0 0 63 62" fill="none" xmlns="http://www.w3.org/2000/svg">
<g clip-path="url(#clip0_185_207)">
<path d="M1.65252 52.0893C0.833695 52.9009 0.275873 53.9357 0.0497368 55.0624C-0.1764 56.1892 -0.0606725 57.3573 0.382255 58.4187C0.825182 59.4801 1.57538 60.387 2.53778 61.0246C3.50018 61.6621 4.63148 62.0016 5.78834 62C6.55647 62.0014 7.3173 61.852 8.02708 61.5603C8.73686 61.2686 9.38157 60.8405 9.92415 60.3005L29.122 41.234L20.8503 33.0228L1.65252 52.0893ZM49.6334 16.7514L57.9869 12.4581L62.3683 4.05333L58.287 0L49.8244 4.35142L45.5015 12.6478L35.3198 22.7598L39.4517 26.8634L49.6334 16.7514ZM51.4616 38.7911C51.1965 38.7757 50.9431 38.7137 50.6742 38.7137C49.2475 38.7137 47.8949 39.0041 46.6319 39.4686L22.6278 15.6287C23.0956 14.3744 23.388 13.031 23.388 11.6141C23.388 11.347 23.3256 11.0953 23.31 10.8321C22.8968 4.78889 17.8839 0 11.6939 0C9.89296 0 8.20512 0.437465 6.68099 1.16141L14.4498 8.87705C14.8591 9.28355 15.1397 9.7636 15.3268 10.2707C15.8375 11.6451 15.5607 13.244 14.4498 14.3512C13.6896 15.1061 12.6918 15.4855 11.6939 15.4855C11.2339 15.4855 10.7778 15.3848 10.3412 15.2222C9.81567 15.0358 9.33694 14.7387 8.93795 14.3512L1.16917 6.63553C0.407935 8.18681 0.00824342 9.88843 -0.000241458 11.6141C-0.000241458 17.7619 4.82162 22.7404 10.9065 23.1508C11.1715 23.1663 11.4249 23.2282 11.6939 23.2282C13.1205 23.2282 14.4732 22.9379 15.7361 22.4733L39.7402 46.3132C39.248 47.5958 38.9906 48.9553 38.9801 50.3278C38.9801 50.5949 39.0424 50.8466 39.058 51.1098C39.4712 57.153 44.4841 61.9419 50.6742 61.9419C52.4751 61.9419 54.1629 61.5045 55.687 60.7805L47.9183 53.0649C47.5267 52.6697 47.2273 52.1939 47.0412 51.6712C46.7788 50.979 46.722 50.2266 46.8775 49.5033C47.0329 48.78 47.3942 48.1162 47.9183 47.5908C48.6784 46.8358 49.6763 46.4565 50.6742 46.4565C51.1341 46.4565 51.5902 46.5571 52.0268 46.7197C52.5374 46.9094 53.0208 47.1843 53.4301 47.5908L61.1989 55.3064C61.9278 53.7927 62.3683 52.1164 62.3683 50.3278C62.3683 44.1801 57.5464 39.2015 51.4616 38.7911Z" fill="#161820"/>
</g>
<defs>
<clipPath id="clip0_185_207">
<rect width="63" height="62" fill="white"/>
</clipPath>
</defs>
</svg>
