<svg width="67" height="67" viewBox="0 0 67 67" fill="none" xmlns="http://www.w3.org/2000/svg">
<path d="M37.939 33.9292C38.9891 33.022 39.7366 31.8152 40.0809 30.4709C40.4252 29.1265 40.35 27.709 39.8652 26.4087C39.3805 25.1084 38.5095 23.9875 37.3692 23.1967C36.2288 22.4058 34.8738 21.9827 33.4861 21.9844C32.0984 21.986 30.7444 22.4122 29.6059 23.2058C28.4675 23.9994 27.5991 25.1223 27.1174 26.4237C26.6358 27.7252 26.5639 29.1429 26.9114 30.4864C27.2589 31.8299 28.0092 33.0349 29.0615 33.9396C28.0393 34.6951 27.2104 35.6818 26.6427 36.819C26.0751 37.9562 25.7846 39.2116 25.7952 40.4826V42.5764C25.7959 42.7804 25.8555 42.9798 25.967 43.1507C26.0784 43.3216 26.2369 43.4566 26.4233 43.5395C28.6556 44.5131 31.0648 45.0156 33.5002 45.0156C35.9356 45.0156 38.3448 44.5131 40.5771 43.5395C40.7635 43.4566 40.922 43.3216 41.0334 43.1507C41.1449 42.9798 41.2045 42.7804 41.2052 42.5764V40.4826C41.2169 39.21 40.927 37.9526 40.3593 36.8135C39.7916 35.6745 38.9622 34.686 37.939 33.9292ZM28.7893 28.789C28.7997 27.5465 29.3007 26.3584 30.183 25.4835C31.0654 24.6086 32.2576 24.1176 33.5002 24.1176C34.7428 24.1176 35.935 24.6086 36.8174 25.4835C37.6997 26.3584 38.2007 27.5465 38.2111 28.789C38.2007 30.0316 37.6997 31.2196 36.8174 32.0946C35.935 32.9695 34.7428 33.4604 33.5002 33.4604C32.2576 33.4604 31.0654 32.9695 30.183 32.0946C29.3007 31.2196 28.7997 30.0316 28.7893 28.789Z" fill="#161820"/>
<path d="M41.8748 31.9296C41.7373 31.9296 41.6011 31.9566 41.4741 32.0092C41.347 32.0618 41.2316 32.1389 41.1343 32.2361C41.0371 32.3333 40.96 32.4488 40.9074 32.5758C40.8548 32.7028 40.8278 32.839 40.8279 32.9765V34.0234C40.8279 34.301 40.9382 34.5673 41.1345 34.7636C41.3308 34.96 41.5971 35.0703 41.8748 35.0703C42.1524 35.0703 42.4187 34.96 42.615 34.7636C42.8113 34.5673 42.9216 34.301 42.9216 34.0234V32.9765C42.9217 32.839 42.8947 32.7028 42.8421 32.5758C42.7895 32.4488 42.7124 32.3333 42.6152 32.2361C42.518 32.1389 42.4025 32.0618 42.2755 32.0092C42.1484 31.9566 42.0123 31.9296 41.8748 31.9296ZM44.2578 31.6045C44.738 32.119 45.0049 32.7965 45.0047 33.5001C45.0045 34.2038 44.7372 34.8811 44.2568 35.3953C44.162 35.4949 44.0877 35.6122 44.0383 35.7405C43.9888 35.8688 43.9651 36.0056 43.9686 36.1431C43.972 36.2806 44.0025 36.416 44.0582 36.5417C44.114 36.6674 44.194 36.7809 44.2937 36.8757C46.1797 38.3077 47.2925 33.9062 47.1091 33.5C47.1027 32.2579 46.6251 31.0646 45.7729 30.161C45.5801 29.9662 45.3186 29.8547 45.0445 29.8507C44.7704 29.8467 44.5056 29.9503 44.3072 30.1394C44.1087 30.3285 43.9923 30.5879 43.9831 30.8619C43.9739 31.1359 44.0725 31.4025 44.2578 31.6045ZM26.1716 34.0234V32.9765C26.1678 32.7014 26.0557 32.4389 25.8598 32.2458C25.6639 32.0526 25.3999 31.9443 25.1248 31.9443C24.8497 31.9443 24.5856 32.0526 24.3897 32.2458C24.1938 32.4389 24.0818 32.7014 24.0779 32.9765V34.0234C24.0818 34.2985 24.1938 34.561 24.3897 34.7541C24.5856 34.9473 24.8497 35.0556 25.1248 35.0556C25.3999 35.0556 25.6639 34.9473 25.8598 34.7541C26.0557 34.561 26.1678 34.2985 26.1716 34.0234ZM21.9841 33.5C21.9922 32.7959 22.2623 32.1202 22.7417 31.6045C22.9268 31.4025 23.0253 31.1359 23.016 30.862C23.0067 30.5881 22.8904 30.3288 22.692 30.1398C22.4936 29.9508 22.2289 29.8471 21.9549 29.8511C21.6809 29.8551 21.4194 29.9664 21.2265 30.1611C20.3776 31.0655 19.905 32.2593 19.9048 33.4998C19.9046 34.7402 20.3769 35.9342 21.2256 36.8388C21.4185 37.0339 21.6801 37.1455 21.9544 37.1497C22.2286 37.1539 22.4935 37.0503 22.6922 36.8612C22.8909 36.6722 23.0075 36.4127 23.0169 36.1386C23.0264 35.8645 22.9279 35.5976 22.7427 35.3953C22.2626 34.88 21.9922 34.2041 21.9841 33.5Z" fill="#161820"/>
<path d="M58.625 27.2188C57.1421 27.2217 55.7079 27.7486 54.5758 28.7063C53.4437 29.6641 52.6865 30.9912 52.438 32.4531H51.2445C51.0114 28.4693 49.44 24.6809 46.7848 21.7017L47.6433 20.8433C53.9455 25.1669 61.0119 16.8128 55.7042 11.2958C50.1662 5.98812 41.8541 13.0545 46.1567 19.3567L45.2983 20.2152C42.3191 17.56 38.5307 15.9885 34.5469 15.7555V14.562C42.032 13.1383 41.1841 2.27172 33.5 2.09375C25.8159 2.27172 24.968 13.1487 32.4531 14.562V15.7555C28.4693 15.9885 24.6809 17.56 21.7017 20.2152L20.8433 19.3567C25.1459 13.0545 16.8338 5.98812 11.2958 11.2958C5.98812 16.8128 13.0545 25.1669 19.3567 20.8433L20.2152 21.7017C17.56 24.6809 15.9886 28.4693 15.7555 32.4531H14.562C13.1383 24.968 2.27172 25.8159 2.09375 33.5C2.27172 41.1841 13.1487 42.032 14.562 34.5469H15.7555C15.9885 38.5307 17.56 42.3191 20.2152 45.2983L19.3567 46.1567C13.0545 41.8541 5.98812 50.1662 11.2958 55.7042C16.8337 61.0119 25.1459 53.9455 20.8433 47.6433L21.7017 46.7848C24.6809 49.44 28.4693 51.0114 32.4531 51.2445V52.438C24.968 53.8617 25.8159 64.7283 33.5 64.9062C41.1841 64.7283 42.032 53.8512 34.5469 52.438V51.2445C38.5307 51.0114 42.3191 49.44 45.2983 46.7848L46.1567 47.6433C41.854 53.9455 50.1662 61.0119 55.7042 55.7042C61.0119 50.1662 53.9455 41.8541 47.6433 46.1567L46.7848 45.2983C49.44 42.3191 51.0115 38.5307 51.2445 34.5469H52.438C53.8617 42.0425 64.7283 41.1736 64.9062 33.5C64.9049 31.8345 64.2427 30.2376 63.0651 29.0599C61.8874 27.8823 60.2905 27.2201 58.625 27.2188ZM33.5 49.2031C29.3368 49.1981 25.3456 47.542 22.4018 44.5982C19.458 41.6544 17.802 37.6632 17.7969 33.5C18.6553 12.6672 48.3447 12.6777 49.2031 33.5C49.1981 37.6632 47.542 41.6544 44.5982 44.5982C41.6544 47.542 37.6632 49.1981 33.5 49.2031Z" fill="#161820"/>
</svg>
