<svg width="226" height="48" viewBox="0 0 226 48" fill="none" xmlns="http://www.w3.org/2000/svg">
<path d="M44.741 19.0748C44.2105 16.3659 43.1736 13.8379 41.7347 11.5952L43.2942 10.0358L37.0042 3.74583L35.5051 5.24498C33.2543 3.74182 30.7062 2.65263 27.9652 2.07789V0H19.0708V2.07789C16.3298 2.64861 13.7856 3.74182 11.5309 5.24498L10.0318 3.74583L3.74182 10.0358L5.30124 11.5952C3.86239 13.8379 2.82545 16.3659 2.29492 19.0748H0V27.9692H2.40746C2.99425 30.6057 4.05933 33.0614 5.51024 35.2398L3.74182 37.0082L10.0318 43.2982L11.8605 41.4695C14.0308 42.8601 16.4624 43.8769 19.0708 44.4235V47.04H27.9652V44.4235C30.5736 43.8769 33.0052 42.8601 35.1755 41.4695L37.0042 43.2982L43.2942 37.0082L41.5257 35.2398C42.9766 33.0614 44.0417 30.6057 44.6285 27.9692H47.036V19.0748H44.741ZM23.516 42.0764C13.1185 42.0764 4.69435 33.6482 4.69435 23.2547C4.69435 12.8572 13.1225 4.43311 23.516 4.43311C33.9135 4.43311 42.3376 12.8612 42.3376 23.2547C42.3376 33.6482 33.9095 42.0764 23.516 42.0764Z" fill="#FAEC85"/>
<path d="M8.8501 24.6295L30.3605 10.249L29.0543 36.3935L19.4285 27.7202L8.8501 24.6295Z" fill="#43B9C1"/>
<path d="M64.5818 25.0063V13.3187H60.0361V11.1523H71.6273V13.3187H67.0817V25.0063H64.5818Z" fill="white"/>
<path d="M72.3867 25.0063L77.2459 11.1523H79.8985L84.7576 25.0063H82.1814L81.0238 21.4574H76.1205L74.963 25.0063H72.3867ZM76.7877 19.4077H80.3527L79.1429 15.698L78.5882 13.5558H78.5481C78.3391 14.4641 78.1542 15.1795 77.9934 15.698L76.7877 19.4077Z" fill="white"/>
<path d="M86.6309 25.0072L91.0358 17.9335L86.7876 11.1572H89.6573L91.498 14.5534L92.322 16.2334H92.3581C92.6073 15.6386 92.8846 15.0558 93.1821 14.4891L95.2519 11.1612H98.1216L93.8412 17.9737L98.2783 25.0152H95.4689L93.3026 21.2895L92.4425 19.6497H92.4023C92.1411 20.2083 91.8638 20.7549 91.5623 21.2895L89.4161 25.0152H86.6309V25.0072Z" fill="white"/>
<path d="M100.348 17.9854C100.348 15.996 101.035 14.32 102.406 12.9615C103.776 11.6031 105.481 10.9238 107.506 10.9238C109.536 10.9238 111.236 11.6031 112.611 12.9615C113.981 14.32 114.668 15.996 114.668 17.9854C114.668 20.0272 113.981 21.7474 112.611 23.146C111.236 24.5447 109.536 25.244 107.506 25.244C105.477 25.244 103.776 24.5447 102.406 23.146C101.031 21.7474 100.348 20.0272 100.348 17.9854ZM102.94 17.9854C102.94 19.3921 103.383 20.5657 104.267 21.5183C105.151 22.4668 106.232 22.941 107.506 22.941C108.78 22.941 109.861 22.4668 110.746 21.5183C111.63 20.5698 112.072 19.3921 112.072 17.9854C112.072 16.6471 111.63 15.5177 110.746 14.6013C109.861 13.685 108.78 13.2268 107.506 13.2268C106.232 13.2268 105.151 13.685 104.267 14.6013C103.383 15.5177 102.94 16.6431 102.94 17.9854Z" fill="white"/>
<path d="M118.667 25.0063V11.1523H126.629V13.3187H121.187V25.0063H118.667Z" fill="white"/>
<path d="M130.005 25.0063V11.1523H135.351C136.653 11.1523 137.71 11.5703 138.53 12.4023C139.35 13.2343 139.76 14.3194 139.76 15.6618C139.76 17.0042 139.35 18.0974 138.53 18.9495C137.71 19.8015 136.649 20.2276 135.351 20.2276H132.521V25.0063H130.005ZM132.521 18.0412H134.885C135.612 18.0412 136.183 17.8281 136.593 17.3981C137.003 16.968 137.208 16.3893 137.208 15.6618C137.208 14.9464 137.003 14.3757 136.593 13.9537C136.183 13.5317 135.628 13.3187 134.925 13.3187H132.525V18.0412H132.521Z" fill="white"/>
<path d="M141.183 25.0063L146.042 11.1523H148.694L153.554 25.0063H150.977L149.82 21.4574H144.916L143.759 25.0063H141.183ZM145.588 19.4077H149.153L147.943 15.698L147.388 13.5558H147.348C147.139 14.4641 146.954 15.1795 146.793 15.698L145.588 19.4077Z" fill="white"/>
<path d="M155.467 17.6316C155.467 15.9396 156.054 14.561 157.231 13.4959C158.409 12.4308 159.932 11.8963 161.805 11.8963V10.373H164.321V11.8963C166.194 11.8963 167.717 12.4308 168.895 13.4959C170.072 14.561 170.659 15.9396 170.659 17.6316C170.659 19.3639 170.072 20.7705 168.903 21.8557C167.733 22.9409 166.202 23.4835 164.317 23.4835V25.2398H161.801V23.4835C159.928 23.4835 158.401 22.9369 157.227 21.8437C156.054 20.7545 155.467 19.3518 155.467 17.6316ZM158.043 17.6316C158.043 18.7369 158.389 19.6372 159.088 20.3325C159.783 21.0278 160.692 21.3774 161.809 21.3774V14.0023C160.692 14.0023 159.783 14.3359 159.088 15.0071C158.389 15.6783 158.043 16.5545 158.043 17.6316ZM164.325 21.3815C165.442 21.3815 166.355 21.0318 167.058 20.3365C167.761 19.6412 168.111 18.7409 168.111 17.6356C168.111 16.5545 167.761 15.6823 167.058 15.0111C166.355 14.3399 165.446 14.0063 164.325 14.0063V21.3815Z" fill="white"/>
<path d="M180.265 25.0063L181.563 11.1523H184.071L186.804 18.001L187.487 20.0306H187.527C187.772 19.2228 188.001 18.5476 188.21 18.001L190.944 11.1523H193.371L194.75 25.0063H192.322L191.554 17.2655C191.575 16.9922 191.583 16.6746 191.583 16.3169C191.583 15.9592 191.579 15.6699 191.57 15.4448V15.1112L191.599 15.1072C191.265 15.9914 190.984 16.6988 190.755 17.2253L188.604 22.623H186.434L184.276 17.2092L183.432 15.0911H183.488C183.464 15.9311 183.472 16.6586 183.516 17.2735L182.793 25.0063H180.265Z" fill="white"/>
<path d="M198.234 18.0217C198.234 15.9921 198.906 14.3 200.244 12.9496C201.582 11.5951 203.286 10.9199 205.356 10.9199C207.462 10.9199 209.166 11.5509 210.469 12.8129L209.259 14.6859C208.752 14.2558 208.158 13.9061 207.474 13.6328C206.791 13.3595 206.124 13.2229 205.473 13.2229C204.014 13.2229 202.876 13.6771 202.057 14.5894C201.237 15.5017 200.827 16.6311 200.827 17.9856C200.827 19.3521 201.245 20.5176 202.077 21.4862C202.909 22.4549 204.046 22.9412 205.489 22.9412C206.972 22.9412 208.31 22.3544 209.508 21.1848L210.834 22.9974C209.363 24.4925 207.551 25.2401 205.392 25.2401C203.246 25.2401 201.518 24.5569 200.204 23.1904C198.894 21.8279 198.234 20.1037 198.234 18.0217Z" fill="white"/>
<path d="M214.467 25.0063V11.1523H216.983V16.7912H218.776L222.039 11.1523H224.772L220.85 17.7478V17.7879L225.005 25.0063H222.156L218.788 18.9575H216.987V25.0063H214.467Z" fill="white"/>
<path d="M62.3872 36.8148L62.6444 36.4009C62.8936 36.5777 63.1066 36.6661 63.2794 36.6661C63.4442 36.6661 63.5769 36.6058 63.6733 36.4853C63.7698 36.3647 63.8662 36.1798 63.9627 35.9226L61.7964 31.5859H62.3952L63.8703 34.6485L64.2079 35.3478L64.1878 35.3318L64.449 34.6324L65.5985 31.5859H66.1732L64.3847 36.1878C64.1355 36.8269 63.7698 37.1444 63.2875 37.1444C63.0061 37.1484 62.7047 37.0359 62.3872 36.8148Z" fill="white"/>
<path d="M67.0293 37.0561V33.1455H70.3009V37.0561H69.7744V33.6117H67.5598V37.0561H67.0293Z" fill="white"/>
<path d="M71.9487 38.6112V33.1452H72.4551V33.5591L72.431 33.8606H72.4471C72.5677 33.6074 72.7485 33.4104 72.9857 33.2657C73.2228 33.1211 73.5001 33.0527 73.8056 33.0527C74.3281 33.0527 74.742 33.2416 75.0475 33.6154C75.3529 33.9932 75.5057 34.4835 75.5057 35.0985C75.5057 35.7134 75.3409 36.2118 75.0153 36.5856C74.6898 36.9593 74.2678 37.1482 73.7573 37.1482C73.484 37.1482 73.2308 37.0799 73.0017 36.9433C72.7727 36.8066 72.5958 36.6177 72.4672 36.3725H72.4511C72.4672 36.465 72.4752 36.5775 72.4752 36.7142V38.6112H71.9487ZM72.4632 35.1105C72.4632 35.5285 72.5757 35.8943 72.8008 36.2078C73.0259 36.5172 73.3273 36.674 73.7051 36.674C74.0628 36.674 74.3642 36.5333 74.6054 36.252C74.8505 35.9706 74.9711 35.5888 74.9711 35.1065C74.9711 34.6363 74.8546 34.2545 74.6255 33.9691C74.3964 33.6837 74.0949 33.539 73.7292 33.539C73.3715 33.539 73.0701 33.6717 72.8289 33.9369C72.5838 34.1942 72.4632 34.588 72.4632 35.1105Z" fill="white"/>
<path d="M76.5747 36.0067C76.5747 35.0984 77.3665 34.6482 78.954 34.6482H79.1871V34.5397C79.1871 33.8645 78.8656 33.5269 78.2226 33.5269C77.8247 33.5269 77.4549 33.6515 77.1093 33.9007L76.8681 33.4987C77.0249 33.3621 77.2298 33.2576 77.483 33.1772C77.7362 33.0968 77.9935 33.0566 78.2507 33.0566C78.7209 33.0566 79.0826 33.1853 79.3359 33.4425C79.5891 33.6997 79.7137 34.0735 79.7137 34.5598V37.0637H79.2072V36.6055L79.2314 36.28H79.2153C79.1068 36.5292 78.9339 36.7382 78.6968 36.907C78.4597 37.0758 78.1944 37.1602 77.893 37.1602C77.5353 37.1602 77.2258 37.0597 76.9646 36.8588C76.7073 36.6417 76.5747 36.3644 76.5747 36.0067ZM77.1093 35.9585C77.1093 36.1554 77.1856 36.3282 77.3424 36.481C77.4991 36.6337 77.7121 36.706 77.9895 36.706C78.3472 36.706 78.6365 36.5533 78.8576 36.2559C79.0786 35.9544 79.1871 35.6168 79.1871 35.2431V35.0662H78.9621C78.7973 35.0662 78.6526 35.0702 78.532 35.0743C78.4115 35.0783 78.2507 35.0984 78.0578 35.1305C77.8649 35.1627 77.7041 35.2109 77.5795 35.2672C77.4549 35.3234 77.3464 35.4119 77.2539 35.5324C77.1575 35.649 77.1093 35.7937 77.1093 35.9585Z" fill="white"/>
<path d="M81.3252 37.0561V33.1455H82.7399C83.1459 33.1455 83.4594 33.2339 83.6885 33.4068C83.9175 33.5796 84.0301 33.8247 84.0301 34.1423C84.0301 34.5723 83.8331 34.8617 83.4393 35.0064V35.0225C83.6885 35.0747 83.8814 35.1872 84.022 35.356C84.1627 35.5289 84.231 35.7298 84.231 35.9629C84.231 36.3005 84.1064 36.5658 83.8532 36.7627C83.6 36.9597 83.2544 37.0602 82.8163 37.0602H81.3252V37.0561ZM81.8517 34.8416H82.6837C82.9409 34.8416 83.1419 34.7853 83.2785 34.6688C83.4152 34.5522 83.4835 34.3874 83.4835 34.1744C83.4835 33.7604 83.2061 33.5514 82.6515 33.5514H81.8517V34.8416ZM81.8517 36.6422H82.744C83.0615 36.6422 83.2946 36.5819 83.4513 36.4613C83.6081 36.3407 83.6844 36.1679 83.6844 35.9509C83.6844 35.7218 83.6041 35.549 83.4393 35.4244C83.2745 35.3038 83.0414 35.2435 82.7359 35.2435H81.8477V36.6422H81.8517Z" fill="white"/>
<path d="M85.1475 37.0883V36.614C85.469 36.5618 85.7061 36.3488 85.8548 35.979C86.0035 35.6092 86.0799 35.0586 86.0799 34.3271V33.1455H88.4753V37.0561H87.9448V33.6037H86.5903V34.3271C86.5903 35.2515 86.4738 35.9308 86.2447 36.3689C86.0156 36.807 85.6499 37.0441 85.1475 37.0883Z" fill="white"/>
<path d="M89.8662 35.1025C89.8662 34.4795 90.0511 33.9852 90.4209 33.6114C90.7906 33.2376 91.2528 33.0527 91.7994 33.0527C92.3179 33.0527 92.7198 33.2256 93.0052 33.5712C93.2905 33.9169 93.4312 34.3469 93.4312 34.8573C93.4312 34.9176 93.4272 35.006 93.4151 35.1226H90.4128C90.4249 35.6049 90.5736 35.9827 90.863 36.256C91.1523 36.5293 91.51 36.67 91.928 36.67C92.3782 36.67 92.7761 36.5132 93.1177 36.2037L93.3588 36.6057C93.178 36.7704 92.9569 36.9031 92.6957 37.0035C92.4344 37.104 92.1732 37.1522 91.916 37.1522C91.3292 37.1522 90.8429 36.9593 90.449 36.5775C90.0632 36.1917 89.8662 35.7013 89.8662 35.1025ZM90.445 34.7006H92.9007C92.8846 34.3107 92.772 34.0133 92.5671 33.8043C92.3581 33.5953 92.1009 33.4908 91.7914 33.4908C91.4538 33.4908 91.1604 33.5953 90.9112 33.8083C90.662 34.0173 90.5053 34.3147 90.445 34.7006Z" fill="white"/>
<path d="M94.8218 37.0561V33.1455H95.3483V34.8175H97.6352V33.1455H98.1617V37.0561H97.6352V35.2837H95.3483V37.0561H94.8218Z" fill="white"/>
<path d="M99.8096 37.0561V33.1455H100.324V35.7097C100.324 36.0674 100.316 36.2603 100.3 36.2925H100.316C100.336 36.2563 100.477 36.0674 100.738 35.7258L102.643 33.1455H103.149V37.0561H102.627V34.4839C102.627 34.4156 102.627 34.3392 102.631 34.2508C102.635 34.1623 102.639 34.086 102.643 34.0217C102.647 33.9574 102.651 33.9212 102.651 33.9172H102.635C102.623 33.9212 102.599 33.9534 102.551 34.0136C102.506 34.0739 102.45 34.1503 102.378 34.2468C102.309 34.3392 102.253 34.4156 102.213 34.4678L100.3 37.0602H99.8096V37.0561Z" fill="white"/>
<path d="M104.528 35.1025C104.528 34.4795 104.713 33.9852 105.082 33.6114C105.452 33.2376 105.914 33.0527 106.461 33.0527C106.98 33.0527 107.381 33.2256 107.667 33.5712C107.952 33.9169 108.093 34.3469 108.093 34.8573C108.093 34.9176 108.089 35.006 108.077 35.1226H105.074C105.086 35.6049 105.235 35.9827 105.525 36.256C105.814 36.5293 106.172 36.67 106.59 36.67C107.04 36.67 107.438 36.5132 107.779 36.2037L108.02 36.6057C107.84 36.7704 107.619 36.9031 107.357 37.0035C107.096 37.104 106.835 37.1522 106.578 37.1522C105.991 37.1522 105.504 36.9593 105.111 36.5775C104.717 36.1957 104.528 35.7013 104.528 35.1025ZM105.103 34.7006H107.558C107.542 34.3107 107.43 34.0133 107.225 33.8043C107.016 33.5953 106.758 33.4908 106.449 33.4908C106.111 33.4908 105.818 33.5953 105.569 33.8083C105.324 34.0173 105.167 34.3147 105.103 34.7006Z" fill="white"/>
<path d="M111.814 37.0561V33.1455H114.146V33.6037H112.341V37.0561H111.814Z" fill="white"/>
<path d="M115.343 38.6112V33.1452H115.85V33.5591L115.826 33.8606H115.842C115.962 33.6074 116.143 33.4104 116.38 33.2657C116.617 33.1211 116.895 33.0527 117.2 33.0527C117.723 33.0527 118.137 33.2416 118.442 33.6154C118.747 33.9932 118.9 34.4835 118.9 35.0985C118.9 35.7134 118.735 36.2118 118.41 36.5856C118.084 36.9634 117.662 37.1482 117.152 37.1482C116.879 37.1482 116.625 37.0799 116.396 36.9433C116.167 36.8066 115.99 36.6177 115.862 36.3725H115.846C115.862 36.465 115.87 36.5775 115.87 36.7142V38.6112H115.343ZM115.854 35.1105C115.854 35.5285 115.966 35.8943 116.191 36.2078C116.416 36.5172 116.718 36.674 117.096 36.674C117.453 36.674 117.755 36.5333 117.996 36.252C118.241 35.9706 118.362 35.5888 118.362 35.1065C118.362 34.6363 118.245 34.2545 118.016 33.9691C117.787 33.6837 117.485 33.539 117.12 33.539C116.762 33.539 116.461 33.6717 116.219 33.9369C115.978 34.1942 115.854 34.588 115.854 35.1105Z" fill="white"/>
<path d="M119.913 38.0369C120.058 38.1575 120.215 38.2138 120.38 38.2138C120.689 38.2138 120.938 38.0007 121.127 37.5747L121.356 37L119.737 33.1416H120.319L121.445 35.9952L121.605 36.4092H121.621C121.658 36.2605 121.702 36.1238 121.754 35.9912L122.883 33.1416H123.45L121.521 37.8681C121.417 38.1213 121.268 38.3223 121.075 38.467C120.882 38.6116 120.657 38.684 120.404 38.684C120.283 38.684 120.167 38.6639 120.05 38.6277C119.933 38.5875 119.849 38.5514 119.797 38.5152L119.712 38.4549L119.913 38.0369Z" fill="white"/>
<path d="M124.274 36.5815L124.555 36.2158C124.861 36.5373 125.21 36.6981 125.604 36.6981C125.866 36.6981 126.087 36.6338 126.267 36.5011C126.452 36.3685 126.545 36.1796 126.545 35.9385C126.545 35.4763 126.227 35.2472 125.596 35.2472H125.122V34.8292H125.536C125.809 34.8292 126.022 34.7729 126.179 34.6604C126.332 34.5479 126.408 34.3831 126.408 34.166C126.408 33.949 126.336 33.7842 126.191 33.6717C126.046 33.5591 125.849 33.5029 125.6 33.5029C125.259 33.5029 124.941 33.6194 124.644 33.8525L124.411 33.4788C124.752 33.1934 125.174 33.0527 125.677 33.0527C126.054 33.0527 126.36 33.1452 126.597 33.326C126.834 33.5069 126.951 33.7681 126.951 34.1057C126.951 34.5438 126.75 34.8453 126.352 34.998V35.0141C126.573 35.0703 126.754 35.1789 126.886 35.3396C127.023 35.5004 127.087 35.7054 127.087 35.9546C127.087 36.3324 126.947 36.6257 126.665 36.8388C126.384 37.0478 126.038 37.1522 125.636 37.1522C125.118 37.1482 124.664 36.9593 124.274 36.5815Z" fill="white"/>
<path d="M128.208 35.0824C128.208 34.5077 128.409 34.0254 128.807 33.6355C129.205 33.2456 129.696 33.0527 130.27 33.0527C130.845 33.0527 131.335 33.2456 131.737 33.6355C132.139 34.0254 132.34 34.5077 132.34 35.0824C132.34 35.6692 132.139 36.1595 131.737 36.5574C131.335 36.9553 130.845 37.1522 130.27 37.1522C129.696 37.1522 129.209 36.9553 128.807 36.5574C128.405 36.1555 128.208 35.6652 128.208 35.0824ZM128.751 35.0824C128.751 35.5406 128.896 35.9184 129.189 36.2158C129.483 36.5172 129.84 36.6659 130.266 36.6659C130.692 36.6659 131.05 36.5132 131.347 36.2158C131.645 35.9144 131.79 35.5366 131.79 35.0824C131.79 34.6443 131.641 34.2705 131.347 33.9731C131.05 33.6757 130.692 33.527 130.266 33.527C129.84 33.527 129.483 33.6757 129.189 33.9731C128.9 34.2705 128.751 34.6403 128.751 35.0824Z" fill="white"/>
<path d="M133.711 37.0561V33.1455H135.126C135.528 33.1455 135.845 33.2339 136.074 33.4068C136.303 33.5796 136.416 33.8247 136.416 34.1423C136.416 34.5723 136.219 34.8617 135.825 35.0064V35.0225C136.074 35.0747 136.267 35.1872 136.408 35.356C136.548 35.5289 136.617 35.7298 136.617 35.9629C136.617 36.3005 136.492 36.5658 136.239 36.7627C135.986 36.9597 135.64 37.0602 135.202 37.0602H133.711V37.0561ZM134.241 34.8416H135.073C135.335 34.8416 135.532 34.7853 135.668 34.6688C135.805 34.5522 135.873 34.3874 135.873 34.1744C135.873 33.7604 135.596 33.5514 135.041 33.5514H134.241V34.8416ZM134.241 36.6422H135.134C135.451 36.6422 135.684 36.5819 135.841 36.4613C135.998 36.3407 136.074 36.1679 136.074 35.9509C136.074 35.7218 135.994 35.549 135.829 35.4244C135.664 35.3038 135.431 35.2435 135.126 35.2435H134.237V36.6422H134.241Z" fill="white"/>
<path d="M138.011 37.0561V33.1455H138.542V34.6366H139.378C139.772 34.6366 140.097 34.7331 140.358 34.922C140.62 35.1109 140.748 35.4244 140.748 35.8544C140.748 36.2242 140.632 36.5135 140.399 36.7266C140.165 36.9436 139.82 37.0481 139.366 37.0481H138.011V37.0561ZM138.538 36.6341H139.313C139.904 36.6341 140.202 36.3729 140.202 35.8504C140.202 35.6012 140.129 35.4083 139.985 35.2676C139.84 35.1269 139.619 35.0586 139.325 35.0586H138.542V36.6341H138.538ZM141.407 37.0561V33.1455H141.938V37.0561H141.407Z" fill="white"/>
<path d="M143.437 37.0562L143.751 33.1456H144.317L145.475 35.5651L145.732 36.1037H145.748C145.832 35.9027 145.913 35.7179 145.989 35.5531L147.171 33.1416H147.721L148.035 37.0522H147.528L147.332 34.5282V33.853H147.315C147.255 34.0138 147.163 34.1986 147.046 34.4076L145.957 36.594L145.499 36.6061L144.442 34.4197L144.168 33.853H144.152C144.164 34.1625 144.164 34.3915 144.152 34.5282L143.951 37.0562H143.437Z" fill="white"/>
<path d="M151.536 36.0067C151.536 35.0984 152.327 34.6482 153.915 34.6482H154.148V34.5397C154.148 33.8645 153.827 33.5269 153.183 33.5269C152.786 33.5269 152.416 33.6515 152.07 33.9007L151.829 33.4987C151.986 33.3621 152.187 33.2576 152.444 33.1772C152.697 33.0968 152.954 33.0566 153.212 33.0566C153.682 33.0566 154.044 33.1853 154.297 33.4425C154.546 33.6997 154.675 34.0735 154.675 34.5598V37.0637H154.168V36.6055L154.192 36.28H154.176C154.068 36.5292 153.895 36.7382 153.658 36.907C153.421 37.0758 153.155 37.1602 152.854 37.1602C152.496 37.1602 152.187 37.0597 151.925 36.8588C151.668 36.6417 151.536 36.3644 151.536 36.0067ZM152.074 35.9585C152.074 36.1554 152.151 36.3282 152.307 36.481C152.464 36.6337 152.677 36.706 152.95 36.706C153.308 36.706 153.597 36.5533 153.819 36.2559C154.04 35.9544 154.148 35.6168 154.148 35.2431V35.0662H153.923C153.758 35.0662 153.614 35.0702 153.493 35.0743C153.372 35.0783 153.212 35.0984 153.019 35.1305C152.826 35.1627 152.665 35.2109 152.54 35.2672C152.416 35.3234 152.307 35.4119 152.215 35.5324C152.122 35.653 152.074 35.7937 152.074 35.9585Z" fill="white"/>
<path d="M156.286 37.0561V33.1455H157.701C158.103 33.1455 158.42 33.2339 158.649 33.4068C158.878 33.5796 158.991 33.8247 158.991 34.1423C158.991 34.5723 158.794 34.8617 158.4 35.0064V35.0225C158.649 35.0747 158.842 35.1872 158.983 35.356C159.124 35.5289 159.192 35.7298 159.192 35.9629C159.192 36.3005 159.067 36.5658 158.814 36.7627C158.561 36.9597 158.215 37.0602 157.777 37.0602H156.286V37.0561ZM156.817 34.8416H157.649C157.91 34.8416 158.107 34.7853 158.243 34.6688C158.38 34.5522 158.448 34.3874 158.448 34.1744C158.448 33.7604 158.171 33.5514 157.616 33.5514H156.817V34.8416ZM156.817 36.6422H157.709C158.026 36.6422 158.26 36.5819 158.416 36.4613C158.573 36.3407 158.649 36.1679 158.649 35.9509C158.649 35.7218 158.569 35.549 158.404 35.4244C158.239 35.3038 158.006 35.2435 157.701 35.2435H156.813V36.6422H156.817Z" fill="white"/>
<path d="M161.503 37.0561V33.6117H160.081V33.1455H163.461V33.6117H162.03V37.0561H161.503Z" fill="white"/>
<path d="M164.232 35.0824C164.232 34.5077 164.433 34.0254 164.831 33.6355C165.229 33.2456 165.719 33.0527 166.294 33.0527C166.869 33.0527 167.359 33.2456 167.761 33.6355C168.163 34.0254 168.364 34.5077 168.364 35.0824C168.364 35.6692 168.163 36.1595 167.761 36.5574C167.359 36.9553 166.869 37.1522 166.294 37.1522C165.719 37.1522 165.233 36.9553 164.831 36.5574C164.429 36.1595 164.232 35.6652 164.232 35.0824ZM164.775 35.0824C164.775 35.5406 164.92 35.9184 165.213 36.2158C165.506 36.5172 165.864 36.6659 166.29 36.6659C166.716 36.6659 167.074 36.5132 167.371 36.2158C167.669 35.9144 167.813 35.5366 167.813 35.0824C167.813 34.6443 167.665 34.2705 167.371 33.9731C167.074 33.6757 166.716 33.527 166.29 33.527C165.864 33.527 165.506 33.6757 165.213 33.9731C164.924 34.2705 164.775 34.6403 164.775 35.0824Z" fill="white"/>
<path d="M169.734 37.0561V33.1455H173.006V37.0561H172.475V33.6117H170.261V37.0561H169.734Z" fill="white"/>
<path d="M174.312 36.0067C174.312 35.0984 175.104 34.6482 176.691 34.6482H176.924V34.5397C176.924 33.8645 176.603 33.5269 175.96 33.5269C175.562 33.5269 175.192 33.6515 174.847 33.9007L174.605 33.4987C174.762 33.3621 174.963 33.2576 175.22 33.1772C175.474 33.0968 175.731 33.0566 175.988 33.0566C176.458 33.0566 176.82 33.1853 177.073 33.4425C177.322 33.6997 177.451 34.0735 177.451 34.5598V37.0637H176.945V36.6055L176.969 36.28H176.953C176.844 36.5292 176.671 36.7382 176.434 36.907C176.197 37.0758 175.932 37.1602 175.63 37.1602C175.273 37.1602 174.963 37.0597 174.702 36.8588C174.445 36.6417 174.312 36.3644 174.312 36.0067ZM174.851 35.9585C174.851 36.1554 174.927 36.3282 175.084 36.481C175.24 36.6337 175.453 36.706 175.727 36.706C176.084 36.706 176.374 36.5533 176.595 36.2559C176.816 35.9544 176.924 35.6168 176.924 35.2431V35.0662H176.699C176.535 35.0662 176.39 35.0702 176.269 35.0743C176.149 35.0783 175.988 35.0984 175.795 35.1305C175.602 35.1627 175.441 35.2109 175.317 35.2672C175.192 35.3234 175.084 35.4119 174.991 35.5324C174.895 35.649 174.851 35.7937 174.851 35.9585Z" fill="white"/>
<path d="M179.063 38.6112V33.1452H179.569V33.5591L179.545 33.8606H179.561C179.682 33.6074 179.863 33.4104 180.1 33.2657C180.337 33.1211 180.614 33.0527 180.92 33.0527C181.442 33.0527 181.856 33.2416 182.162 33.6154C182.467 33.9932 182.62 34.4835 182.62 35.0985C182.62 35.7134 182.455 36.2118 182.13 36.5856C181.804 36.9634 181.382 37.1482 180.872 37.1482C180.598 37.1482 180.345 37.0799 180.116 36.9433C179.887 36.8066 179.71 36.6177 179.581 36.3725H179.569C179.585 36.465 179.594 36.5775 179.594 36.7142V38.6112H179.063ZM179.577 35.1105C179.577 35.5285 179.69 35.8943 179.915 36.2078C180.14 36.5172 180.442 36.674 180.819 36.674C181.177 36.674 181.478 36.5333 181.72 36.252C181.965 35.9706 182.085 35.5888 182.085 35.1065C182.085 34.6363 181.969 34.2545 181.74 33.9691C181.511 33.6837 181.209 33.539 180.843 33.539C180.486 33.539 180.184 33.6717 179.943 33.9369C179.698 34.1942 179.577 34.588 179.577 35.1105Z" fill="white"/>
<path d="M184.03 37.0561V33.1455H184.561V34.8014H185.184L186.357 33.1455H186.98L185.622 35.0024V35.0184L187.137 37.0561H186.49L185.188 35.2676H184.561V37.0561H184.03Z" fill="white"/>
<path d="M187.841 35.0824C187.841 34.5077 188.042 34.0254 188.44 33.6355C188.838 33.2456 189.328 33.0527 189.903 33.0527C190.477 33.0527 190.968 33.2456 191.37 33.6355C191.772 34.0254 191.972 34.5077 191.972 35.0824C191.972 35.6692 191.772 36.1595 191.37 36.5574C190.968 36.9553 190.477 37.1522 189.903 37.1522C189.328 37.1522 188.842 36.9553 188.44 36.5574C188.038 36.1595 187.841 35.6652 187.841 35.0824ZM188.383 35.0824C188.383 35.5406 188.528 35.9184 188.821 36.2158C189.115 36.5172 189.473 36.6659 189.899 36.6659C190.325 36.6659 190.682 36.5132 190.98 36.2158C191.277 35.9144 191.422 35.5366 191.422 35.0824C191.422 34.6443 191.273 34.2705 190.98 33.9731C190.682 33.6757 190.325 33.527 189.899 33.527C189.473 33.527 189.115 33.6757 188.821 33.9731C188.532 34.2705 188.383 34.6403 188.383 35.0824Z" fill="white"/>
<path d="M193.194 37.0562L193.508 33.1456H194.075L195.232 35.5651L195.489 36.1037H195.505C195.59 35.9027 195.67 35.7179 195.746 35.5531L196.928 33.1416H197.479L197.792 37.0522H197.286L197.089 34.5282V33.853H197.073C197.013 34.0138 196.92 34.1986 196.804 34.4076L195.714 36.594L195.256 36.6061L194.199 34.4197L193.926 33.853H193.91C193.922 34.1625 193.922 34.3915 193.91 34.5282L193.709 37.0562H193.194Z" fill="white"/>
</svg>
