<svg width="46" height="46" viewBox="0 0 46 46" fill="none" xmlns="http://www.w3.org/2000/svg">
<path d="M40.1062 21.0449C39.5958 20.3256 39.2028 19.5299 38.9418 18.6874C38.7695 17.8217 38.7259 16.9353 38.8124 16.0568C38.9175 15.3666 38.8533 14.6612 38.6256 14.0012C38.1601 13.4677 37.5735 13.0536 36.9149 12.7937C36.1138 12.4277 35.3723 11.9431 34.7156 11.3562C34.1287 10.6994 33.6441 9.95798 33.2781 9.15682C33.0181 8.49826 32.604 7.91165 32.0706 7.44619C31.3945 7.18229 30.6627 7.09329 29.9431 7.18744C29.0644 7.26702 28.179 7.22347 27.3124 7.05807C26.485 6.7929 25.7041 6.40004 24.9981 5.89369C24.4168 5.43466 23.7299 5.12828 22.9999 5.00244C22.2852 5.13507 21.6139 5.4411 21.0449 5.89369C20.3256 6.40407 19.5299 6.79708 18.6874 7.05807C17.8217 7.23039 16.9353 7.27399 16.0568 7.18744C15.3666 7.08242 14.6612 7.14654 14.0012 7.37432C13.462 7.85197 13.0475 8.45396 12.7937 9.12807C12.4277 9.92923 11.9431 10.6707 11.3562 11.3274C10.6994 11.9143 9.95798 12.399 9.15682 12.7649C8.49826 13.0249 7.91165 13.439 7.44619 13.9724C7.18948 14.6353 7.10059 15.3513 7.18744 16.0568C7.27399 16.9353 7.23039 17.8217 7.05807 18.6874C6.7929 19.5149 6.40004 20.2957 5.89369 21.0018C5.43466 21.5831 5.12828 22.27 5.00244 22.9999C5.13507 23.7147 5.4411 24.386 5.89369 24.9549C6.40407 25.6742 6.79708 26.47 7.05807 27.3124C7.23039 28.1782 7.27399 29.0646 7.18744 29.9431C7.08242 30.6333 7.14654 31.3387 7.37432 31.9987C7.83978 32.5322 8.42639 32.9463 9.08494 33.2062C9.8861 33.5722 10.6275 34.0568 11.2843 34.6437C11.8712 35.3005 12.3558 36.0419 12.7218 36.8431C12.9818 37.5016 13.3958 38.0882 13.9293 38.5537C14.5893 38.7815 15.2947 38.8456 15.9849 38.7406H16.9193C17.5049 38.7243 18.0899 38.7872 18.6587 38.9274C19.4861 39.1926 20.267 39.5855 20.9731 40.0918C21.542 40.5444 22.2133 40.8504 22.9281 40.9831C23.6428 40.8504 24.3142 40.5444 24.8831 40.0918C25.6253 39.5796 26.4458 39.1912 27.3124 38.9418C28.1782 38.7695 29.0646 38.7259 29.9431 38.8124C30.6333 38.9175 31.3387 38.8533 31.9987 38.6256C32.5322 38.1601 32.9463 37.5735 33.2062 36.9149C33.5722 36.1138 34.0568 35.3723 34.6437 34.7156C35.3005 34.1287 36.0419 33.6441 36.8431 33.2781C37.5016 33.0181 38.0882 32.604 38.5537 32.0706C38.8176 31.3945 38.9066 30.6627 38.8124 29.9431C38.7259 29.0646 38.7695 28.1782 38.9418 27.3124C39.207 26.485 39.5998 25.7041 40.1062 24.9981C40.5652 24.4168 40.8716 23.7299 40.9974 22.9999C40.8648 22.2852 40.5588 21.6139 40.1062 21.0449ZM27.3124 25.2281L28.3043 31.0499L22.9999 28.3043L17.7674 31.0499L18.7593 25.2281L14.5331 21.1024L20.3837 20.2543L22.9999 14.9499L25.6162 20.2543L31.4668 21.1024L27.3124 25.2281Z" fill="white"/>
</svg>
