<svg width="38" height="38" viewBox="0 0 38 38" fill="none" xmlns="http://www.w3.org/2000/svg">
<g clip-path="url(#clip0_185_256)">
<path d="M22.4958 13.6042V12.1602C22.4958 11.7042 22.1158 11.3242 21.6598 11.3242H7.44782C6.99182 11.3242 6.61182 11.7042 6.61182 12.1602V13.6042C6.61182 14.0602 6.99182 14.4402 7.44782 14.4402H21.6598C22.1158 14.4402 22.4958 14.0602 22.4958 13.6042ZM11.2478 6.84021L11.0198 3.11621C8.51182 4.40821 6.83982 6.91621 6.76382 9.80421C6.99182 9.72821 7.21982 9.72821 7.44782 9.72821H21.6598C21.8878 9.72821 22.1158 9.80421 22.3438 9.80421C22.2678 6.91621 20.5958 4.40821 18.0878 3.11621L17.8598 6.84021C17.7838 8.05621 16.7958 8.96821 15.6558 8.96821H13.4518C12.3118 8.96821 11.3238 8.05621 11.2478 6.84021Z" fill="white"/>
<path d="M13.4518 7.44805H15.6558C16.0358 7.44805 16.3398 7.14405 16.4158 6.76405L16.7198 1.44405C16.7198 0.912055 16.4158 0.456055 15.9598 0.456055H13.2238C12.7678 0.456055 12.3878 0.912055 12.4638 1.44405L12.7678 6.84005C12.7678 7.14405 13.0718 7.44805 13.4518 7.44805ZM14.5158 24.0921C18.0878 24.0921 21.2038 19.7601 21.5078 15.9601H7.52377C7.90377 19.7601 10.9438 24.0921 14.5158 24.0921ZM0.759766 36.8601C0.759766 37.3161 1.06377 37.6201 1.51977 37.6201H27.5878C28.0438 37.6201 28.3478 37.3161 28.3478 36.8601V33.6681C28.3478 29.0321 24.6238 25.3081 19.9878 25.3081H9.11977C4.48377 25.3081 0.759766 29.0321 0.759766 33.6681V36.8601ZM31.4638 24.8521C32.9838 24.8521 34.4278 24.2441 35.5678 23.1801C37.1638 21.6601 37.6198 19.3801 36.9358 17.2521C36.8598 17.0241 36.6318 16.7961 36.4038 16.7961C36.1758 16.7201 35.8718 16.7961 35.7198 17.0241L33.4398 19.3041L31.3878 17.3281L33.6678 15.1241C33.8198 14.8961 33.8958 14.6681 33.8958 14.4401C33.8198 14.2121 33.6678 13.9841 33.3638 13.9081C32.7558 13.6801 32.1478 13.6041 31.5398 13.6041C30.0198 13.6041 28.5758 14.2121 27.4358 15.2761C26.3718 16.3401 25.7638 17.7841 25.7638 19.3801C25.7638 19.7601 25.8398 20.1401 25.9158 20.5201L22.2678 24.1681C24.4718 24.6241 26.3718 25.8401 27.7398 27.5121L30.3998 24.8521C30.6278 24.8521 31.0838 24.8521 31.4638 24.8521Z" fill="white"/>
</g>
<defs>
<clipPath id="clip0_185_256">
<rect width="38" height="38" fill="white"/>
</clipPath>
</defs>
</svg>
