<svg width="40" height="40" viewBox="0 0 40 40" fill="none" xmlns="http://www.w3.org/2000/svg">
<path d="M20.0041 27.1288C21.0398 27.1288 21.8793 26.2893 21.8793 25.2536C21.8793 24.218 21.0398 23.3784 20.0041 23.3784C18.9685 23.3784 18.1289 24.218 18.1289 25.2536C18.1289 26.2893 18.9685 27.1288 20.0041 27.1288Z" fill="white"/>
<path d="M27.0121 21.2135C26.2141 19.8487 24.2933 19.9456 23.3795 19.4164C22.5141 18.9116 21.635 17.1738 20.0002 17.1738C18.382 17.1738 17.486 18.9163 16.6287 19.4164C15.7045 19.9513 13.7975 19.8431 12.9961 21.2135C12.2313 22.5346 13.2496 24.1732 13.2496 25.2532C13.2496 26.3499 12.2302 27.9697 12.9961 29.2929C13.7941 30.6576 15.7128 30.5599 16.6287 31.09C17.4916 31.5933 18.3772 33.3325 20.0002 33.3325C21.6329 33.3325 22.4804 31.6145 23.3795 31.09C24.302 30.5559 26.2086 30.667 27.0121 29.2929C27.778 27.9696 26.7586 26.3544 26.7586 25.2532C26.7586 24.1681 27.7776 22.5359 27.0121 21.2135ZM20.0039 28.6646C18.1207 28.6646 16.5892 27.1346 16.5892 25.2536C16.5892 23.3729 18.1207 21.8429 20.0039 21.8429C21.8872 21.8429 23.4194 23.3729 23.4194 25.2536C23.4194 27.1346 21.8872 28.6646 20.0039 28.6646Z" fill="white"/>
<path d="M36.197 0.799805H3.81055C2.57399 0.799805 1.56787 1.79815 1.56787 3.03471V27.411C1.56787 28.6473 2.57399 29.6535 3.81055 29.6535H11.4675C10.6923 27.8231 11.7133 25.9124 11.7133 25.2528C11.7133 24.5208 10.5376 22.3903 11.6672 20.4452C12.8204 18.4681 15.1921 18.4417 15.8604 18.0874C16.2252 17.8635 17.3245 16.2503 18.9988 15.7834H6.99861C6.57411 15.7834 6.23061 15.4395 6.23061 15.0154C6.23061 14.5912 6.5741 14.2474 6.99861 14.2474H32.2683C32.6928 14.2474 33.0363 14.5912 33.0363 15.0154C33.0363 15.4395 32.6928 15.7834 32.2683 15.7834H21.0108C22.7356 16.2612 23.7078 17.8327 24.1548 18.0874C24.6912 18.4097 27.168 18.4486 28.3404 20.4375C29.4508 22.3599 28.2942 24.5756 28.2942 25.2528C28.2942 25.9117 29.3155 27.8226 28.5401 29.6535H36.197C37.4335 29.6535 38.4318 28.6473 38.4318 27.411V3.03471C38.4318 1.79815 37.4335 0.799805 36.197 0.799805ZM11.6598 6.33264H27.6063C28.0308 6.33264 28.3743 6.67651 28.3743 7.10064C28.3743 7.52476 28.0308 7.86864 27.6063 7.86864H11.6598C11.2354 7.86864 10.8918 7.52476 10.8918 7.10064C10.8918 6.67651 11.2353 6.33264 11.6598 6.33264ZM32.2683 11.826H6.99861C6.57411 11.826 6.23061 11.4821 6.23061 11.058C6.23061 10.6339 6.5741 10.29 6.99861 10.29H32.2683C32.6928 10.29 33.0363 10.6339 33.0363 11.058C33.0363 11.4821 32.6928 11.826 32.2683 11.826Z" fill="white"/>
<path d="M25.0229 38.6931C24.6382 39.2319 23.9747 39.3312 23.4946 39.0386C21.1446 37.6332 18.8406 37.6255 16.5213 39.0156C16.0143 39.3152 15.3462 39.1769 14.9853 38.6777C14.7087 38.3014 14.6395 37.8098 14.7856 37.3491L16.168 32.7026C16.2524 32.7795 16.3293 32.864 16.3983 32.9331C17.1355 33.7088 18.2493 34.8684 20.0001 34.8684C21.7512 34.8684 22.8496 33.7164 23.5868 32.9561C23.656 32.8793 23.7404 32.7949 23.8326 32.7026L25.2302 37.3798C25.3761 37.8175 25.2994 38.3167 25.0229 38.6931Z" fill="white"/>
</svg>
