<svg width="226" height="48" viewBox="0 0 226 48" fill="none" xmlns="http://www.w3.org/2000/svg">
<path d="M44.741 19.0748C44.2105 16.3659 43.1736 13.8379 41.7347 11.5952L43.2942 10.0358L37.0042 3.74583L35.5051 5.24498C33.2543 3.74182 30.7062 2.65263 27.9652 2.07789V0H19.0708V2.07789C16.3298 2.64861 13.7856 3.74182 11.5309 5.24498L10.0318 3.74583L3.74182 10.0358L5.30124 11.5952C3.86239 13.8379 2.82545 16.3659 2.29492 19.0748H0V27.9692H2.40746C2.99425 30.6057 4.05933 33.0614 5.51024 35.2398L3.74182 37.0082L10.0318 43.2982L11.8605 41.4695C14.0308 42.8601 16.4624 43.8769 19.0708 44.4235V47.04H27.9652V44.4235C30.5736 43.8769 33.0052 42.8601 35.1755 41.4695L37.0042 43.2982L43.2942 37.0082L41.5257 35.2398C42.9766 33.0614 44.0417 30.6057 44.6285 27.9692H47.036V19.0748H44.741ZM23.516 42.0764C13.1185 42.0764 4.69435 33.6482 4.69435 23.2547C4.69435 12.8572 13.1225 4.43311 23.516 4.43311C33.9135 4.43311 42.3376 12.8612 42.3376 23.2547C42.3376 33.6482 33.9095 42.0764 23.516 42.0764Z" fill="#FAEC85"/>
<path d="M8.8501 24.6293L30.3605 10.2488L29.0543 36.3933L19.4285 27.72L8.8501 24.6293Z" fill="#43B9C1"/>
<path d="M64.7283 25.007V13.3194H60.1826V11.1531H71.7738V13.3194H67.2282V25.007H64.7283Z" fill="#191D2D"/>
<path d="M72.5332 25.007L77.3923 11.1531H80.045L84.9041 25.007H82.3278L81.1703 21.4582H76.267L75.1095 25.007H72.5332ZM76.9342 19.4084H80.4991L79.2894 15.6987L78.7347 13.5565H78.6945C78.4855 14.4649 78.3007 15.1803 78.1399 15.6987L76.9342 19.4084Z" fill="#191D2D"/>
<path d="M86.7773 25.0069L91.1823 17.9333L86.9341 11.157H89.8038L91.6445 14.5532L92.4684 16.2332H92.5046C92.7538 15.6383 93.0311 15.0556 93.3285 14.4889L95.3984 11.161H98.2681L93.9877 17.9734L98.4248 25.015H95.6154L93.4491 21.2892L92.589 19.6494H92.5488C92.2876 20.2081 92.0103 20.7547 91.7088 21.2892L89.5626 25.015H86.7773V25.0069Z" fill="#191D2D"/>
<path d="M100.495 17.9854C100.495 15.996 101.182 14.32 102.552 12.9615C103.923 11.6031 105.627 10.9238 107.653 10.9238C109.682 10.9238 111.382 11.6031 112.757 12.9615C114.128 14.32 114.815 15.996 114.815 17.9854C114.815 20.0272 114.128 21.7474 112.757 23.146C111.382 24.5447 109.682 25.244 107.653 25.244C105.623 25.244 103.923 24.5447 102.552 23.146C101.178 21.7474 100.495 20.0272 100.495 17.9854ZM103.087 17.9854C103.087 19.3921 103.529 20.5657 104.413 21.5183C105.297 22.4668 106.379 22.941 107.653 22.941C108.927 22.941 110.008 22.4668 110.892 21.5183C111.776 20.5698 112.218 19.3921 112.218 17.9854C112.218 16.6471 111.776 15.5177 110.892 14.6013C110.008 13.685 108.927 13.2268 107.653 13.2268C106.379 13.2268 105.297 13.685 104.413 14.6013C103.529 15.5177 103.087 16.6431 103.087 17.9854Z" fill="#191D2D"/>
<path d="M118.814 25.007V11.1531H126.776V13.3194H121.334V25.007H118.814Z" fill="#191D2D"/>
<path d="M130.152 25.007V11.1531H135.497C136.8 11.1531 137.857 11.5711 138.676 12.403C139.496 13.235 139.906 14.3202 139.906 15.6625C139.906 17.0049 139.496 18.0982 138.676 18.9502C137.857 19.8023 136.795 20.2283 135.497 20.2283H132.668V25.007H130.152ZM132.668 18.0419H135.031C135.759 18.0419 136.329 17.8289 136.739 17.3988C137.149 16.9688 137.354 16.39 137.354 15.6625C137.354 14.9471 137.149 14.3764 136.739 13.9544C136.329 13.5324 135.775 13.3194 135.071 13.3194H132.672V18.0419H132.668Z" fill="#191D2D"/>
<path d="M141.329 25.007L146.188 11.1531H148.841L153.7 25.007H151.124L149.966 21.4582H145.063L143.905 25.007H141.329ZM145.734 19.4084H149.299L148.089 15.6987L147.535 13.5565H147.494C147.285 14.4649 147.101 15.1803 146.94 15.6987L145.734 19.4084Z" fill="#191D2D"/>
<path d="M155.613 17.6319C155.613 15.9398 156.2 14.5612 157.378 13.4962C158.555 12.4311 160.079 11.8965 161.951 11.8965V10.3733H164.467V11.8965C166.34 11.8965 167.864 12.4311 169.041 13.4962C170.219 14.5612 170.806 15.9398 170.806 17.6319C170.806 19.3641 170.219 20.7708 169.049 21.856C167.88 22.9411 166.348 23.4837 164.463 23.4837V25.2401H161.947V23.4837C160.075 23.4837 158.547 22.9371 157.374 21.8439C156.2 20.7547 155.613 19.352 155.613 17.6319ZM158.19 17.6319C158.19 18.7371 158.535 19.6374 159.235 20.3327C159.93 21.028 160.838 21.3777 161.955 21.3777V14.0026C160.838 14.0026 159.93 14.3362 159.235 15.0074C158.535 15.6786 158.19 16.5547 158.19 17.6319ZM164.471 21.3817C165.589 21.3817 166.501 21.032 167.204 20.3367C167.908 19.6414 168.257 18.7411 168.257 17.6359C168.257 16.5547 167.908 15.6826 167.204 15.0114C166.501 14.3402 165.593 14.0066 164.471 14.0066V21.3817Z" fill="#191D2D"/>
<path d="M180.411 25.007L181.709 11.1531H184.217L186.95 18.0017L187.634 20.0314H187.674C187.919 19.2235 188.148 18.5483 188.357 18.0017L191.09 11.1531H193.518L194.896 25.007H192.469L191.701 17.2662C191.721 16.9929 191.729 16.6754 191.729 16.3177C191.729 15.96 191.725 15.6706 191.717 15.4455V15.1119L191.745 15.1079C191.412 15.9921 191.13 16.6995 190.901 17.226L188.751 22.6237H186.581L184.422 17.2099L183.578 15.0918H183.634C183.61 15.9318 183.618 16.6593 183.663 17.2742L182.939 25.007H180.411Z" fill="#191D2D"/>
<path d="M198.381 18.0217C198.381 15.9921 199.052 14.3 200.39 12.9496C201.729 11.5951 203.433 10.9199 205.503 10.9199C207.609 10.9199 209.313 11.5509 210.615 12.8129L209.405 14.6859C208.899 14.2558 208.304 13.9061 207.621 13.6328C206.938 13.3595 206.27 13.2229 205.619 13.2229C204.16 13.2229 203.023 13.6771 202.203 14.5894C201.383 15.5017 200.973 16.6311 200.973 17.9856C200.973 19.3521 201.391 20.5176 202.223 21.4862C203.055 22.4549 204.193 22.9412 205.635 22.9412C207.118 22.9412 208.457 22.3544 209.655 21.1848L210.981 22.9974C209.51 24.4925 207.697 25.2401 205.539 25.2401C203.393 25.2401 201.665 24.5569 200.35 23.1904C199.04 21.8279 198.381 20.1037 198.381 18.0217Z" fill="#191D2D"/>
<path d="M214.614 25.007V11.1531H217.13V16.7919H218.922L222.186 11.1531H224.919L220.996 17.7485V17.7887L225.152 25.007H222.302L218.934 18.9582H217.134V25.007H214.614Z" fill="#191D2D"/>
<path d="M62.5337 36.8151L62.7909 36.4011C63.0401 36.5779 63.2531 36.6664 63.4259 36.6664C63.5907 36.6664 63.7234 36.6061 63.8198 36.4855C63.9163 36.3649 64.0127 36.18 64.1092 35.9228L61.9429 31.5862H62.5417L64.0167 34.6488L64.3544 35.3481L64.3343 35.332L64.5955 34.6327L65.745 31.5862H66.3197L64.5312 36.1881C64.282 36.8271 63.9163 37.1446 63.434 37.1446C63.1526 37.1487 62.8512 37.0361 62.5337 36.8151Z" fill="#191D2D"/>
<path d="M67.1758 37.0561V33.1455H70.4474V37.0561H69.9209V33.6117H67.7063V37.0561H67.1758Z" fill="#191D2D"/>
<path d="M72.0952 38.6117V33.1457H72.6016V33.5596L72.5775 33.8611H72.5936C72.7142 33.6079 72.895 33.4109 73.1321 33.2662C73.3693 33.1215 73.6466 33.0532 73.9521 33.0532C74.4745 33.0532 74.8885 33.2421 75.194 33.6159C75.4994 33.9937 75.6521 34.484 75.6521 35.099C75.6521 35.7139 75.4874 36.2123 75.1618 36.586C74.8363 36.9598 74.4143 37.1487 73.9038 37.1487C73.6305 37.1487 73.3773 37.0804 73.1482 36.9437C72.9191 36.8071 72.7423 36.6182 72.6137 36.373H72.5976C72.6137 36.4655 72.6217 36.578 72.6217 36.7147V38.6117H72.0952ZM72.6097 35.111C72.6097 35.529 72.7222 35.8948 72.9473 36.2082C73.1723 36.5177 73.4738 36.6745 73.8516 36.6745C74.2093 36.6745 74.5107 36.5338 74.7519 36.2525C74.997 35.9711 75.1176 35.5893 75.1176 35.107C75.1176 34.6368 75.0011 34.2549 74.772 33.9696C74.5429 33.6842 74.2414 33.5395 73.8757 33.5395C73.518 33.5395 73.2166 33.6722 72.9754 33.9374C72.7302 34.1947 72.6097 34.5885 72.6097 35.111Z" fill="#191D2D"/>
<path d="M76.7212 36.0072C76.7212 35.0989 77.513 34.6487 79.1005 34.6487H79.3336V34.5402C79.3336 33.865 79.0121 33.5274 78.369 33.5274C77.9711 33.5274 77.6014 33.652 77.2557 33.9012L77.0146 33.4992C77.1713 33.3626 77.3763 33.2581 77.6295 33.1777C77.8827 33.0973 78.14 33.0571 78.3972 33.0571C78.8674 33.0571 79.2291 33.1858 79.4823 33.443C79.7355 33.7002 79.8601 34.074 79.8601 34.5603V37.0642H79.3537V36.606L79.3778 36.2805H79.3618C79.2533 36.5297 79.0804 36.7387 78.8433 36.9075C78.6062 37.0763 78.3409 37.1607 78.0395 37.1607C77.6818 37.1607 77.3723 37.0602 77.111 36.8592C76.8538 36.6422 76.7212 36.3649 76.7212 36.0072ZM77.2557 35.9589C77.2557 36.1559 77.3321 36.3287 77.4888 36.4814C77.6456 36.6342 77.8586 36.7065 78.1359 36.7065C78.4936 36.7065 78.783 36.5538 79.0041 36.2564C79.2251 35.9549 79.3336 35.6173 79.3336 35.2435V35.0667H79.1086C78.9438 35.0667 78.7991 35.0707 78.6785 35.0747C78.5579 35.0788 78.3972 35.0989 78.2043 35.131C78.0113 35.1632 77.8506 35.2114 77.726 35.2677C77.6014 35.3239 77.4929 35.4123 77.4004 35.5329C77.304 35.6495 77.2557 35.7942 77.2557 35.9589Z" fill="#191D2D"/>
<path d="M81.4717 37.0561V33.1455H82.8864C83.2923 33.1455 83.6058 33.2339 83.8349 33.4068C84.064 33.5796 84.1766 33.8247 84.1766 34.1423C84.1766 34.5723 83.9796 34.8617 83.5858 35.0064V35.0225C83.8349 35.0747 84.0278 35.1872 84.1685 35.356C84.3092 35.5289 84.3775 35.7298 84.3775 35.9629C84.3775 36.3005 84.2529 36.5658 83.9997 36.7627C83.7465 36.9597 83.4009 37.0602 82.9628 37.0602H81.4717V37.0561ZM81.9982 34.8416H82.8302C83.0874 34.8416 83.2883 34.7853 83.425 34.6688C83.5616 34.5522 83.63 34.3874 83.63 34.1744C83.63 33.7604 83.3526 33.5514 82.798 33.5514H81.9982V34.8416ZM81.9982 36.6422H82.8904C83.2079 36.6422 83.4411 36.5819 83.5978 36.4613C83.7546 36.3407 83.8309 36.1679 83.8309 35.9509C83.8309 35.7218 83.7505 35.549 83.5858 35.4244C83.421 35.3038 83.1879 35.2435 82.8824 35.2435H81.9942V36.6422H81.9982Z" fill="#191D2D"/>
<path d="M85.2939 37.0883V36.614C85.6155 36.5618 85.8526 36.3488 86.0013 35.979C86.15 35.6092 86.2264 35.0586 86.2264 34.3271V33.1455H88.6218V37.0561H88.0913V33.6037H86.7368V34.3271C86.7368 35.2515 86.6203 35.9308 86.3912 36.3689C86.1621 36.807 85.7963 37.0441 85.2939 37.0883Z" fill="#191D2D"/>
<path d="M90.0127 35.103C90.0127 34.48 90.1976 33.9857 90.5673 33.6119C90.9371 33.2381 91.3993 33.0532 91.9459 33.0532C92.4644 33.0532 92.8663 33.226 93.1516 33.5717C93.437 33.9173 93.5777 34.3474 93.5777 34.8578C93.5777 34.9181 93.5737 35.0065 93.5616 35.1231H90.5593C90.5714 35.6054 90.7201 35.9832 91.0094 36.2565C91.2988 36.5298 91.6565 36.6704 92.0745 36.6704C92.5247 36.6704 92.9226 36.5137 93.2642 36.2042L93.5053 36.6061C93.3245 36.7709 93.1034 36.9036 92.8422 37.004C92.5809 37.1045 92.3197 37.1527 92.0625 37.1527C91.4757 37.1527 90.9894 36.9598 90.5955 36.578C90.2096 36.1922 90.0127 35.7018 90.0127 35.103ZM90.5915 34.7011H93.0471C93.0311 34.3112 92.9185 34.0138 92.7136 33.8048C92.5046 33.5958 92.2473 33.4913 91.9379 33.4913C91.6003 33.4913 91.3069 33.5958 91.0577 33.8088C90.8085 34.0178 90.6517 34.3152 90.5915 34.7011Z" fill="#191D2D"/>
<path d="M94.9683 37.0561V33.1455H95.4948V34.8175H97.7817V33.1455H98.3082V37.0561H97.7817V35.2837H95.4948V37.0561H94.9683Z" fill="#191D2D"/>
<path d="M99.9561 37.0561V33.1455H100.471V35.7097C100.471 36.0674 100.462 36.2603 100.446 36.2925H100.462C100.483 36.2563 100.623 36.0674 100.884 35.7258L102.79 33.1455H103.296V37.0561H102.773V34.4839C102.773 34.4156 102.773 34.3392 102.777 34.2508C102.782 34.1623 102.786 34.086 102.79 34.0217C102.794 33.9574 102.798 33.9212 102.798 33.9172H102.782C102.769 33.9212 102.745 33.9534 102.697 34.0136C102.653 34.0739 102.597 34.1503 102.524 34.2468C102.456 34.3392 102.4 34.4156 102.36 34.4678L100.446 37.0602H99.9561V37.0561Z" fill="#191D2D"/>
<path d="M104.674 35.103C104.674 34.48 104.859 33.9857 105.229 33.6119C105.599 33.2381 106.061 33.0532 106.608 33.0532C107.126 33.0532 107.528 33.226 107.813 33.5717C108.099 33.9173 108.239 34.3474 108.239 34.8578C108.239 34.9181 108.235 35.0065 108.223 35.1231H105.221C105.233 35.6054 105.382 35.9832 105.671 36.2565C105.96 36.5298 106.318 36.6704 106.736 36.6704C107.186 36.6704 107.584 36.5137 107.926 36.2042L108.167 36.6061C107.986 36.7709 107.765 36.9036 107.504 37.004C107.243 37.1045 106.981 37.1527 106.724 37.1527C106.137 37.1527 105.651 36.9598 105.257 36.578C104.863 36.1962 104.674 35.7018 104.674 35.103ZM105.249 34.7011H107.705C107.689 34.3112 107.576 34.0138 107.371 33.8048C107.162 33.5958 106.905 33.4913 106.595 33.4913C106.258 33.4913 105.964 33.5958 105.715 33.8088C105.47 34.0178 105.313 34.3152 105.249 34.7011Z" fill="#191D2D"/>
<path d="M111.961 37.0561V33.1455H114.292V33.6037H112.487V37.0561H111.961Z" fill="#191D2D"/>
<path d="M115.49 38.6117V33.1457H115.996V33.5596L115.972 33.8611H115.988C116.109 33.6079 116.29 33.4109 116.527 33.2662C116.764 33.1215 117.041 33.0532 117.347 33.0532C117.869 33.0532 118.283 33.2421 118.588 33.6159C118.894 33.9937 119.047 34.484 119.047 35.099C119.047 35.7139 118.882 36.2123 118.556 36.586C118.231 36.9638 117.809 37.1487 117.298 37.1487C117.025 37.1487 116.772 37.0804 116.543 36.9437C116.314 36.8071 116.137 36.6182 116.008 36.373H115.992C116.008 36.4655 116.016 36.578 116.016 36.7147V38.6117H115.49ZM116 35.111C116 35.529 116.113 35.8948 116.338 36.2082C116.563 36.5177 116.864 36.6745 117.242 36.6745C117.6 36.6745 117.901 36.5338 118.142 36.2525C118.388 35.9711 118.508 35.5893 118.508 35.107C118.508 34.6368 118.392 34.2549 118.162 33.9696C117.933 33.6842 117.632 33.5395 117.266 33.5395C116.908 33.5395 116.607 33.6722 116.366 33.9374C116.125 34.1947 116 34.5885 116 35.111Z" fill="#191D2D"/>
<path d="M120.06 38.0369C120.205 38.1575 120.361 38.2138 120.526 38.2138C120.836 38.2138 121.085 38.0007 121.274 37.5747L121.503 37L119.883 33.1416H120.466L121.591 35.9952L121.752 36.4092H121.768C121.804 36.2605 121.848 36.1238 121.901 35.9912L123.03 33.1416H123.597L121.667 37.8681C121.563 38.1213 121.414 38.3223 121.221 38.467C121.028 38.6116 120.803 38.684 120.55 38.684C120.43 38.684 120.313 38.6639 120.196 38.6277C120.08 38.5875 119.996 38.5514 119.943 38.5152L119.859 38.4549L120.06 38.0369Z" fill="#191D2D"/>
<path d="M124.42 36.582L124.702 36.2163C125.007 36.5378 125.357 36.6986 125.751 36.6986C126.012 36.6986 126.233 36.6343 126.414 36.5016C126.599 36.369 126.691 36.1801 126.691 35.939C126.691 35.4768 126.374 35.2477 125.743 35.2477H125.268V34.8297H125.682C125.956 34.8297 126.169 34.7734 126.325 34.6609C126.478 34.5483 126.555 34.3836 126.555 34.1665C126.555 33.9495 126.482 33.7847 126.338 33.6722C126.193 33.5596 125.996 33.5034 125.747 33.5034C125.405 33.5034 125.088 33.6199 124.79 33.853L124.557 33.4793C124.899 33.1939 125.321 33.0532 125.823 33.0532C126.201 33.0532 126.506 33.1457 126.743 33.3265C126.981 33.5074 127.097 33.7686 127.097 34.1062C127.097 34.5443 126.896 34.8458 126.498 34.9985V35.0146C126.719 35.0708 126.9 35.1793 127.033 35.3401C127.17 35.5009 127.234 35.7059 127.234 35.955C127.234 36.3328 127.093 36.6262 126.812 36.8392C126.53 37.0482 126.185 37.1527 125.783 37.1527C125.264 37.1487 124.81 36.9598 124.42 36.582Z" fill="#191D2D"/>
<path d="M128.355 35.0829C128.355 34.5081 128.556 34.0258 128.954 33.636C129.352 33.2461 129.842 33.0532 130.417 33.0532C130.992 33.0532 131.482 33.2461 131.884 33.636C132.286 34.0258 132.487 34.5081 132.487 35.0829C132.487 35.6697 132.286 36.16 131.884 36.5579C131.482 36.9558 130.992 37.1527 130.417 37.1527C129.842 37.1527 129.356 36.9558 128.954 36.5579C128.552 36.156 128.355 35.6657 128.355 35.0829ZM128.898 35.0829C128.898 35.5411 129.042 35.9189 129.336 36.2163C129.629 36.5177 129.987 36.6664 130.413 36.6664C130.839 36.6664 131.197 36.5137 131.494 36.2163C131.791 35.9148 131.936 35.537 131.936 35.0829C131.936 34.6448 131.787 34.271 131.494 33.9736C131.197 33.6762 130.839 33.5275 130.413 33.5275C129.987 33.5275 129.629 33.6762 129.336 33.9736C129.046 34.271 128.898 34.6408 128.898 35.0829Z" fill="#191D2D"/>
<path d="M133.857 37.0561V33.1455H135.272C135.674 33.1455 135.992 33.2339 136.221 33.4068C136.45 33.5796 136.562 33.8247 136.562 34.1423C136.562 34.5723 136.365 34.8617 135.971 35.0064V35.0225C136.221 35.0747 136.414 35.1872 136.554 35.356C136.695 35.5289 136.763 35.7298 136.763 35.9629C136.763 36.3005 136.639 36.5658 136.385 36.7627C136.132 36.9597 135.787 37.0602 135.349 37.0602H133.857V37.0561ZM134.388 34.8416H135.22C135.481 34.8416 135.678 34.7853 135.815 34.6688C135.951 34.5522 136.02 34.3874 136.02 34.1744C136.02 33.7604 135.742 33.5514 135.188 33.5514H134.388V34.8416ZM134.388 36.6422H135.28C135.598 36.6422 135.831 36.5819 135.988 36.4613C136.144 36.3407 136.221 36.1679 136.221 35.9509C136.221 35.7218 136.14 35.549 135.976 35.4244C135.811 35.3038 135.578 35.2435 135.272 35.2435H134.384V36.6422H134.388Z" fill="#191D2D"/>
<path d="M138.158 37.0561V33.1455H138.688V34.6366H139.524C139.918 34.6366 140.244 34.7331 140.505 34.922C140.766 35.1109 140.895 35.4244 140.895 35.8544C140.895 36.2242 140.778 36.5135 140.545 36.7266C140.312 36.9436 139.966 37.0481 139.512 37.0481H138.158V37.0561ZM138.684 36.6341H139.46C140.051 36.6341 140.348 36.3729 140.348 35.8504C140.348 35.6012 140.276 35.4083 140.131 35.2676C139.986 35.1269 139.765 35.0586 139.472 35.0586H138.688V36.6341H138.684ZM141.554 37.0561V33.1455H142.084V37.0561H141.554Z" fill="#191D2D"/>
<path d="M143.583 37.0562L143.897 33.1456H144.464L145.621 35.5651L145.878 36.1037H145.895C145.979 35.9027 146.059 35.7179 146.136 35.5531L147.317 33.1416H147.868L148.181 37.0522H147.675L147.478 34.5282V33.853H147.462C147.402 34.0138 147.309 34.1986 147.193 34.4076L146.103 36.594L145.645 36.6061L144.588 34.4197L144.315 33.853H144.299C144.311 34.1625 144.311 34.3915 144.299 34.5282L144.098 37.0562H143.583Z" fill="#191D2D"/>
<path d="M151.682 36.0072C151.682 35.0989 152.474 34.6487 154.061 34.6487H154.295V34.5402C154.295 33.865 153.973 33.5274 153.33 33.5274C152.932 33.5274 152.562 33.652 152.217 33.9012L151.976 33.4992C152.132 33.3626 152.333 33.2581 152.59 33.1777C152.844 33.0973 153.101 33.0571 153.358 33.0571C153.828 33.0571 154.19 33.1858 154.443 33.443C154.692 33.7002 154.821 34.074 154.821 34.5603V37.0642H154.315V36.606L154.339 36.2805H154.323C154.214 36.5297 154.041 36.7387 153.804 36.9075C153.567 37.0763 153.302 37.1607 153 37.1607C152.643 37.1607 152.333 37.0602 152.072 36.8592C151.815 36.6422 151.682 36.3649 151.682 36.0072ZM152.221 35.9589C152.221 36.1559 152.297 36.3287 152.454 36.4814C152.611 36.6342 152.824 36.7065 153.097 36.7065C153.455 36.7065 153.744 36.5538 153.965 36.2564C154.186 35.9549 154.295 35.6173 154.295 35.2435V35.0667H154.069C153.905 35.0667 153.76 35.0707 153.639 35.0747C153.519 35.0788 153.358 35.0989 153.165 35.131C152.972 35.1632 152.812 35.2114 152.687 35.2677C152.562 35.3239 152.454 35.4123 152.361 35.5329C152.269 35.6535 152.221 35.7942 152.221 35.9589Z" fill="#191D2D"/>
<path d="M156.433 37.0561V33.1455H157.847C158.249 33.1455 158.567 33.2339 158.796 33.4068C159.025 33.5796 159.137 33.8247 159.137 34.1423C159.137 34.5723 158.941 34.8617 158.547 35.0064V35.0225C158.796 35.0747 158.989 35.1872 159.129 35.356C159.27 35.5289 159.338 35.7298 159.338 35.9629C159.338 36.3005 159.214 36.5658 158.961 36.7627C158.707 36.9597 158.362 37.0602 157.924 37.0602H156.433V37.0561ZM156.963 34.8416H157.795C158.056 34.8416 158.253 34.7853 158.39 34.6688C158.527 34.5522 158.595 34.3874 158.595 34.1744C158.595 33.7604 158.318 33.5514 157.763 33.5514H156.963V34.8416ZM156.963 36.6422H157.855C158.173 36.6422 158.406 36.5819 158.563 36.4613C158.72 36.3407 158.796 36.1679 158.796 35.9509C158.796 35.7218 158.715 35.549 158.551 35.4244C158.386 35.3038 158.153 35.2435 157.847 35.2435H156.959V36.6422H156.963Z" fill="#191D2D"/>
<path d="M161.65 37.0561V33.6117H160.227V33.1455H163.607V33.6117H162.176V37.0561H161.65Z" fill="#191D2D"/>
<path d="M164.379 35.0829C164.379 34.5081 164.58 34.0258 164.978 33.636C165.376 33.2461 165.866 33.0532 166.441 33.0532C167.015 33.0532 167.506 33.2461 167.908 33.636C168.31 34.0258 168.511 34.5081 168.511 35.0829C168.511 35.6697 168.31 36.16 167.908 36.5579C167.506 36.9558 167.015 37.1527 166.441 37.1527C165.866 37.1527 165.38 36.9558 164.978 36.5579C164.576 36.16 164.379 35.6657 164.379 35.0829ZM164.921 35.0829C164.921 35.5411 165.066 35.9189 165.36 36.2163C165.653 36.5177 166.011 36.6664 166.437 36.6664C166.863 36.6664 167.22 36.5137 167.518 36.2163C167.815 35.9148 167.96 35.537 167.96 35.0829C167.96 34.6448 167.811 34.271 167.518 33.9736C167.22 33.6762 166.863 33.5275 166.437 33.5275C166.011 33.5275 165.653 33.6762 165.36 33.9736C165.07 34.271 164.921 34.6408 164.921 35.0829Z" fill="#191D2D"/>
<path d="M169.881 37.0561V33.1455H173.152V37.0561H172.622V33.6117H170.407V37.0561H169.881Z" fill="#191D2D"/>
<path d="M174.458 36.0072C174.458 35.0989 175.25 34.6487 176.838 34.6487H177.071V34.5402C177.071 33.865 176.749 33.5274 176.106 33.5274C175.708 33.5274 175.339 33.652 174.993 33.9012L174.752 33.4992C174.909 33.3626 175.11 33.2581 175.367 33.1777C175.62 33.0973 175.877 33.0571 176.134 33.0571C176.605 33.0571 176.966 33.1858 177.22 33.443C177.469 33.7002 177.597 34.074 177.597 34.5603V37.0642H177.091V36.606L177.115 36.2805H177.099C176.991 36.5297 176.818 36.7387 176.581 36.9075C176.343 37.0763 176.078 37.1607 175.777 37.1607C175.419 37.1607 175.11 37.0602 174.848 36.8592C174.591 36.6422 174.458 36.3649 174.458 36.0072ZM174.997 35.9589C174.997 36.1559 175.073 36.3287 175.23 36.4814C175.387 36.6342 175.6 36.7065 175.873 36.7065C176.231 36.7065 176.52 36.5538 176.741 36.2564C176.962 35.9549 177.071 35.6173 177.071 35.2435V35.0667H176.846C176.681 35.0667 176.536 35.0707 176.416 35.0747C176.295 35.0788 176.134 35.0989 175.942 35.131C175.749 35.1632 175.588 35.2114 175.463 35.2677C175.339 35.3239 175.23 35.4123 175.138 35.5329C175.041 35.6495 174.997 35.7942 174.997 35.9589Z" fill="#191D2D"/>
<path d="M179.209 38.6117V33.1457H179.716V33.5596L179.692 33.8611H179.708C179.828 33.6079 180.009 33.4109 180.246 33.2662C180.484 33.1215 180.761 33.0532 181.066 33.0532C181.589 33.0532 182.003 33.2421 182.308 33.6159C182.614 33.9937 182.766 34.484 182.766 35.099C182.766 35.7139 182.602 36.2123 182.276 36.586C181.951 36.9638 181.529 37.1487 181.018 37.1487C180.745 37.1487 180.492 37.0804 180.262 36.9437C180.033 36.8071 179.857 36.6182 179.728 36.373H179.716C179.732 36.4655 179.74 36.578 179.74 36.7147V38.6117H179.209ZM179.724 35.111C179.724 35.529 179.836 35.8948 180.062 36.2082C180.287 36.5177 180.588 36.6745 180.966 36.6745C181.324 36.6745 181.625 36.5338 181.866 36.2525C182.111 35.9711 182.232 35.5893 182.232 35.107C182.232 34.6368 182.115 34.2549 181.886 33.9696C181.657 33.6842 181.356 33.5395 180.99 33.5395C180.632 33.5395 180.331 33.6722 180.09 33.9374C179.844 34.1947 179.724 34.5885 179.724 35.111Z" fill="#191D2D"/>
<path d="M184.177 37.0561V33.1455H184.707V34.8014H185.33L186.504 33.1455H187.127L185.768 35.0024V35.0184L187.284 37.0561H186.636L185.334 35.2676H184.707V37.0561H184.177Z" fill="#191D2D"/>
<path d="M187.987 35.0829C187.987 34.5081 188.188 34.0258 188.586 33.636C188.984 33.2461 189.474 33.0532 190.049 33.0532C190.624 33.0532 191.114 33.2461 191.516 33.636C191.918 34.0258 192.119 34.5081 192.119 35.0829C192.119 35.6697 191.918 36.16 191.516 36.5579C191.114 36.9558 190.624 37.1527 190.049 37.1527C189.474 37.1527 188.988 36.9558 188.586 36.5579C188.184 36.16 187.987 35.6657 187.987 35.0829ZM188.53 35.0829C188.53 35.5411 188.675 35.9189 188.968 36.2163C189.261 36.5177 189.619 36.6664 190.045 36.6664C190.471 36.6664 190.829 36.5137 191.126 36.2163C191.424 35.9148 191.568 35.537 191.568 35.0829C191.568 34.6448 191.42 34.271 191.126 33.9736C190.829 33.6762 190.471 33.5275 190.045 33.5275C189.619 33.5275 189.261 33.6762 188.968 33.9736C188.679 34.271 188.53 34.6408 188.53 35.0829Z" fill="#191D2D"/>
<path d="M193.341 37.0562L193.654 33.1456H194.221L195.379 35.5651L195.636 36.1037H195.652C195.736 35.9027 195.817 35.7179 195.893 35.5531L197.075 33.1416H197.625L197.939 37.0522H197.432L197.235 34.5282V33.853H197.219C197.159 34.0138 197.067 34.1986 196.95 34.4076L195.861 36.594L195.403 36.6061L194.346 34.4197L194.072 33.853H194.056C194.068 34.1625 194.068 34.3915 194.056 34.5282L193.855 37.0562H193.341Z" fill="#191D2D"/>
</svg>
