<svg width="45" height="45" viewBox="0 0 45 45" fill="none" xmlns="http://www.w3.org/2000/svg">
<circle cx="22.5" cy="22.5" r="22.5" fill="#E15241" fill-opacity="0.3"/>
<circle cx="22.5" cy="22.5" r="16.25" fill="#E15241"/>
<path d="M29.7005 27.2482C29.7759 27.4618 29.6381 27.8228 29.393 28.054L27.8386 29.5204C27.4709 29.8674 26.7804 30.0011 26.2976 29.8188L25.5793 29.5479C21.556 28.0296 16.9829 23.7158 15.3736 19.9203L15.0863 19.2429C14.8933 18.7874 15.035 18.136 15.4026 17.7892L16.9571 16.3228C17.2022 16.0914 17.585 15.9614 17.8112 16.0327C19.0558 16.424 20.403 17.6947 20.8178 18.8688C20.8932 19.0821 20.7554 19.4433 20.5103 19.6745L19.6221 20.5124C19.3767 20.7436 19.3038 21.1689 19.4588 21.4613L19.6903 21.8984C20.388 23.2148 22.0872 24.8176 23.4825 25.4758L23.9457 25.6942C24.2558 25.8404 24.7065 25.7714 24.9516 25.5402L25.8401 24.7023C26.0851 24.4711 26.4677 24.3411 26.6942 24.4122C27.9385 24.8035 29.2857 26.0744 29.7005 27.2482Z" fill="white"/>
<path d="M21.7642 18.2274L21.8217 18.8216C21.8374 18.9844 21.9555 19.0993 22.0857 19.0778C22.0857 19.0778 22.3266 19.0609 22.5692 19.0671C23.5974 19.0901 24.5768 19.4904 25.303 20.1796C26.0336 20.8646 26.4577 21.7885 26.4842 22.7603C26.4933 23.0749 26.4562 23.386 26.4528 23.3983C26.4105 23.557 26.5132 23.7154 26.6821 23.7523L27.2929 23.8852C27.4618 23.9221 27.6328 23.8229 27.674 23.6642C27.7027 23.5551 27.7509 23.1439 27.7391 22.729C27.7057 21.4532 27.1482 20.2403 26.1912 19.3416C25.2384 18.4386 23.9528 17.9128 22.6004 17.8815C22.3092 17.8741 22.0201 17.8914 22.0201 17.8914C21.8632 17.9139 21.7487 18.0645 21.7642 18.2274Z" fill="white"/>
<path fill-rule="evenodd" clip-rule="evenodd" d="M21.8476 16.3433L21.9045 16.9332C21.9203 17.096 22.06 17.2128 22.2167 17.1935C22.2167 17.1935 22.5033 17.1792 22.7896 17.1857C24.3551 17.2255 25.8409 17.8311 26.9423 18.8784L26.9467 18.8826C26.9445 18.8805 26.9445 18.8805 26.9423 18.8784C26.9445 18.8805 26.9445 18.8805 26.9445 18.8805L26.9467 18.8826C28.0572 19.9216 28.7011 21.3253 28.7411 22.8C28.7524 23.2411 28.7048 23.6824 28.6706 23.8233C28.6321 23.9829 28.7379 24.142 28.9069 24.1789L29.5196 24.3123C29.6886 24.3489 29.8568 24.2493 29.8953 24.0899C29.9528 23.8527 30.0108 23.312 29.998 22.7708C29.9491 20.99 29.1741 19.2954 27.8327 18.0426C27.8327 18.0426 27.8327 18.0426 27.8305 18.0405L27.8327 18.0426C26.5049 16.7772 24.7083 16.0461 22.823 16.0021C22.4866 15.9945 22.1511 16.01 22.131 16.0123C21.9588 16.0322 21.8319 16.1805 21.8476 16.3433ZM27.8305 18.0405C27.8327 18.0426 27.8327 18.0426 27.8327 18.0426L27.8305 18.0405Z" fill="white"/>
</svg>
