<svg width="15" height="14" viewBox="0 0 15 14" fill="none" xmlns="http://www.w3.org/2000/svg">
<path d="M14.7005 11.2482C14.7759 11.4618 14.6381 11.8228 14.393 12.054L12.8386 13.5204C12.4709 13.8674 11.7804 14.0011 11.2976 13.8188L10.5793 13.5479C6.55599 12.0296 1.98287 7.71584 0.373617 3.92028L0.086293 3.2429C-0.10673 2.78745 0.0349677 2.13601 0.402595 1.78921L1.95709 0.322788C2.20217 0.0913572 2.58503 -0.0386056 2.8112 0.0327465C4.05578 0.424025 5.40301 1.69469 5.81779 2.86876C5.89318 3.08212 5.75541 3.44328 5.51033 3.67448L4.62208 4.51241C4.37675 4.74361 4.30381 5.16894 4.45877 5.4613L4.69035 5.89844C5.38803 7.21475 7.08717 8.81763 8.48253 9.47578L8.94569 9.69424C9.25585 9.84042 9.70648 9.77138 9.95156 9.54018L10.8401 8.70226C11.0851 8.47106 11.4677 8.3411 11.6942 8.41222C12.9385 8.80349 14.2857 10.0744 14.7005 11.2482Z" fill="#E15241"/>
<path d="M6.7641 2.22735L6.82156 2.82156C6.83728 2.98442 6.9554 3.09933 7.08556 3.07778C7.08556 3.07778 7.32647 3.06087 7.5691 3.06713C8.59732 3.09006 9.57668 3.49037 10.3029 4.17957C11.0334 4.86459 11.4576 5.78846 11.4841 6.76028C11.4932 7.07488 11.4561 7.386 11.4526 7.39828C11.4104 7.55697 11.5131 7.71543 11.682 7.75226L12.2928 7.88523C12.4617 7.92207 12.6326 7.82292 12.6739 7.66423C12.7026 7.55512 12.7508 7.14391 12.739 6.72901C12.7056 5.45324 12.1481 4.24026 11.1911 3.34165C10.2383 2.43863 8.95267 1.91275 7.60028 1.88148C7.30903 1.87407 7.01999 1.89144 7.01999 1.89144C6.86306 1.91391 6.74862 2.06449 6.7641 2.22735Z" fill="#E15241"/>
<path fill-rule="evenodd" clip-rule="evenodd" d="M6.84751 0.343339L6.90448 0.933153C6.9202 1.09601 7.05993 1.21277 7.21661 1.19354C7.21661 1.19354 7.50319 1.17918 7.78953 1.18567C9.35508 1.22551 10.8408 1.83108 11.9422 2.87843L11.9466 2.8826C11.9444 2.88051 11.9444 2.88051 11.9422 2.87843C11.9444 2.88051 11.9444 2.88051 11.9444 2.88051L11.9466 2.8826C13.0571 3.92161 13.701 5.32526 13.7411 6.80002C13.7524 7.24111 13.7047 7.68243 13.6706 7.82328C13.632 7.9829 13.7379 8.14205 13.9068 8.17888L14.5195 8.31232C14.6885 8.34892 14.8567 8.24931 14.8953 8.08992C14.9527 7.8527 15.0107 7.312 14.9979 6.77083C14.9491 4.99004 14.174 3.29542 12.8327 2.04259C12.8327 2.04259 12.8327 2.04259 12.8305 2.0405L12.8327 2.04259C11.5049 0.777244 9.70822 0.0461153 7.82293 0.00209925C7.48649 -0.00554563 7.15104 0.00997578 7.1309 0.0122924C6.95875 0.0322154 6.83179 0.18048 6.84751 0.343339ZM12.8305 2.0405C12.8327 2.04259 12.8327 2.04259 12.8327 2.04259L12.8305 2.0405Z" fill="#E15241"/>
</svg>
