<svg width="36" height="36" viewBox="0 0 36 36" fill="none" xmlns="http://www.w3.org/2000/svg">
<path d="M33.4201 27.3296L26.6701 20.5796C26.4592 20.3687 26.1731 20.2502 25.8748 20.2502C25.5765 20.2502 25.2904 20.3687 25.0794 20.5796L23.6248 22.0343L22.403 20.8125L26.6308 16.5859C27.1046 16.1121 27.4804 15.5496 27.7368 14.9306C27.9932 14.3115 28.1252 13.648 28.1252 12.978C28.1252 12.308 27.9932 11.6445 27.7368 11.0254C27.4804 10.4064 27.1046 9.84392 26.6308 9.37012C26.157 8.89633 25.5945 8.5205 24.9755 8.26408C24.3564 8.00767 23.6929 7.87569 23.0229 7.87569C22.3528 7.87569 21.6894 8.00767 21.0703 8.26408C20.4513 8.5205 19.8888 8.89633 19.415 9.37013L15.1873 13.5968L13.9655 12.375L15.4201 10.9204C15.631 10.7094 15.7495 10.4233 15.7495 10.125C15.7495 9.82669 15.631 9.54059 15.4201 9.32963L8.67013 2.57962C8.45917 2.36872 8.17307 2.25024 7.87476 2.25024C7.57645 2.25024 7.29035 2.36872 7.07938 2.57962L2.57938 7.07963C2.36848 7.29059 2.25 7.57669 2.25 7.875C2.25 8.17331 2.36848 8.45941 2.57938 8.67037L9.32938 15.4204C9.54035 15.6313 9.82645 15.7498 10.1248 15.7498C10.4231 15.7498 10.7092 15.6313 10.9201 15.4204L12.3748 13.9657L13.5965 15.1875L9.36876 19.4141C8.41189 20.371 7.87433 21.6688 7.87433 23.022C7.87433 24.3752 8.41189 25.673 9.36876 26.6299C10.3256 27.5867 11.6234 28.1243 12.9766 28.1243C14.3299 28.1243 15.6276 27.5867 16.5845 26.6299L20.8123 22.4032L22.034 23.625L20.5794 25.0796C20.3685 25.2906 20.25 25.5767 20.25 25.875C20.25 26.1733 20.3685 26.4594 20.5794 26.6704L27.3294 33.4204C27.5404 33.6313 27.8265 33.7498 28.1248 33.7498C28.4231 33.7498 28.7092 33.6313 28.9201 33.4204L33.4201 28.9204C33.631 28.7094 33.7495 28.4233 33.7495 28.125C33.7495 27.8267 33.631 27.5406 33.4201 27.3296ZM26.9998 4.5C28.1932 4.5 29.3378 4.97411 30.1817 5.81802C31.0257 6.66193 31.4998 7.80653 31.4998 9C31.4998 9.29837 31.6183 9.58452 31.8293 9.7955C32.0402 10.0065 32.3264 10.125 32.6248 10.125C32.9231 10.125 33.2093 10.0065 33.4203 9.7955C33.6312 9.58452 33.7498 9.29837 33.7498 9C33.7477 7.21043 33.0358 5.49475 31.7704 4.22933C30.505 2.96391 28.7893 2.25208 26.9998 2.25C26.7014 2.25 26.4152 2.36853 26.2043 2.5795C25.9933 2.79048 25.8748 3.07663 25.8748 3.375C25.8748 3.67337 25.9933 3.95952 26.2043 4.1705C26.4152 4.38147 26.7014 4.5 26.9998 4.5Z" fill="white"/>
<path d="M27 7.875C27.2984 7.875 27.5845 7.99353 27.7955 8.2045C28.0065 8.41548 28.125 8.70163 28.125 9C28.125 9.29837 28.2435 9.58452 28.4545 9.7955C28.6655 10.0065 28.9516 10.125 29.25 10.125C29.5484 10.125 29.8345 10.0065 30.0455 9.7955C30.2565 9.58452 30.375 9.29837 30.375 9C30.375 8.10489 30.0194 7.24645 29.3865 6.61351C28.7536 5.98058 27.8951 5.625 27 5.625C26.7016 5.625 26.4155 5.74353 26.2045 5.95451C25.9935 6.16548 25.875 6.45163 25.875 6.75C25.875 7.04837 25.9935 7.33452 26.2045 7.54549C26.4155 7.75647 26.7016 7.875 27 7.875ZM9 31.5C7.80653 31.5 6.66193 31.0259 5.81802 30.182C4.97411 29.3381 4.5 28.1935 4.5 27C4.5 26.7016 4.38147 26.4155 4.1705 26.2045C3.95952 25.9935 3.67337 25.875 3.375 25.875C3.07663 25.875 2.79048 25.9935 2.5795 26.2045C2.36853 26.4155 2.25 26.7016 2.25 27C2.25208 28.7896 2.96391 30.5053 4.22933 31.7707C5.49475 33.0361 7.21043 33.7479 9 33.75C9.29837 33.75 9.58452 33.6315 9.7955 33.4205C10.0065 33.2095 10.125 32.9234 10.125 32.625C10.125 32.3266 10.0065 32.0405 9.7955 31.8295C9.58452 31.6185 9.29837 31.5 9 31.5Z" fill="white"/>
<path d="M9 28.125C8.70163 28.125 8.41548 28.0065 8.2045 27.7955C7.99353 27.5845 7.875 27.2984 7.875 27C7.875 26.7016 7.75647 26.4155 7.54549 26.2045C7.33452 25.9935 7.04837 25.875 6.75 25.875C6.45163 25.875 6.16548 25.9935 5.95451 26.2045C5.74353 26.4155 5.625 26.7016 5.625 27C5.625 27.8951 5.98058 28.7536 6.61351 29.3865C7.24645 30.0194 8.10489 30.375 9 30.375C9.29837 30.375 9.58452 30.2565 9.7955 30.0455C10.0065 29.8345 10.125 29.5484 10.125 29.25C10.125 28.9516 10.0065 28.6655 9.7955 28.4545C9.58452 28.2435 9.29837 28.125 9 28.125Z" fill="white"/>
</svg>
