<svg width="40" height="40" viewBox="0 0 40 40" fill="none" xmlns="http://www.w3.org/2000/svg">
<path fill-rule="evenodd" clip-rule="evenodd" d="M20.7033 8.47243C22.033 6.73546 24.1275 5.61426 26.4815 5.61426C28.8366 5.61426 30.93 6.73546 32.2609 8.47243H33.7542C34.719 8.47243 35.6439 8.85547 36.3263 9.53789C37.0075 10.2191 37.3906 11.1439 37.3906 12.1088C37.3906 16.3064 37.3906 24.8809 37.3906 29.0785C37.3906 30.0433 37.0075 30.9682 36.3263 31.6494C35.6439 32.3318 34.719 32.7149 33.7542 32.7149C27.8839 32.7149 12.9578 32.7149 7.08754 32.7149C6.1239 32.7149 5.19905 32.3318 4.51662 31.6494C3.8342 30.9682 3.45117 30.0433 3.45117 29.0785C3.45117 24.8809 3.45117 16.3064 3.45117 12.1088C3.45117 11.1439 3.8342 10.2191 4.51662 9.53789C5.19905 8.85547 6.1239 8.47243 7.08754 8.47243H20.7033ZM28.9057 19.7452C28.1481 20.0143 27.3312 20.1597 26.4815 20.1597C25.6318 20.1597 24.816 20.0143 24.0572 19.7452V24.5658L26.0984 23.8858C26.3469 23.8033 26.616 23.8033 26.8657 23.8858L28.9057 24.5658V19.7452ZM8.29966 24.23H17.9966C18.6657 24.23 19.2087 23.687 19.2087 23.0179C19.2087 22.3488 18.6657 21.8058 17.9966 21.8058H8.29966C7.63057 21.8058 7.08754 22.3488 7.08754 23.0179C7.08754 23.687 7.63057 24.23 8.29966 24.23ZM8.29966 19.3815H16.7845C17.4536 19.3815 17.9966 18.8385 17.9966 18.1694C17.9966 17.5003 17.4536 16.9573 16.7845 16.9573H8.29966C7.63057 16.9573 7.08754 17.5003 7.08754 18.1694C7.08754 18.8385 7.63057 19.3815 8.29966 19.3815ZM26.4815 8.0385C29.1578 8.0385 31.33 10.2106 31.33 12.887C31.33 15.5633 29.1578 17.7355 26.4815 17.7355C23.8063 17.7355 21.633 15.5633 21.633 12.887C21.633 10.2106 23.8063 8.0385 26.4815 8.0385Z" fill="white"/>
</svg>
