<svg width="37" height="37" viewBox="0 0 37 37" fill="none" xmlns="http://www.w3.org/2000/svg">
<path d="M36.7688 28.249C36.7255 28.5453 36.6532 28.8344 36.5448 29.0584C36.3497 29.4559 36.1618 29.492 35.4247 29.4559C34.4708 29.4125 33.105 29.4559 31.6597 29.5137C31.6597 29.9111 31.6741 30.099 31.6741 30.099C31.7681 31.1902 32.2595 31.2264 32.4546 31.2264H35.562C35.8366 31.2264 36.0896 31.2264 36.2847 31.0963C36.5376 30.9301 36.646 30.4459 36.7399 29.6004C36.7544 29.4775 36.7616 29.3186 36.7688 29.1307V29.1234C36.7688 29.0656 36.7761 28.9934 36.7761 28.9139V28.8344C36.7761 28.6393 36.7761 28.4225 36.7688 28.249Z" fill="white"/>
<path d="M0.216699 28.249C0.260059 28.5453 0.332324 28.8344 0.440723 29.0584C0.63584 29.4559 0.823731 29.492 1.56084 29.4559C2.51475 29.4125 3.88057 29.4559 5.32588 29.5137C5.32588 29.9111 5.31143 30.099 5.31143 30.099C5.21748 31.1902 4.72607 31.2264 4.53096 31.2264H1.42354C1.14893 31.2264 0.917676 31.2264 0.700879 31.0963C0.440723 30.9445 0.339551 30.4459 0.245605 29.6004C0.231152 29.4775 0.223926 29.3186 0.216699 29.1307V29.1234C0.216699 29.0656 0.209473 28.9934 0.209473 28.9139V28.8344C0.216699 28.6393 0.216699 28.4225 0.216699 28.249Z" fill="white"/>
<path d="M37 21.4342C37 19.2156 36.7109 17.0477 36.5953 16.8092C36.5086 16.6357 35.9521 16.1805 34.6875 15.3205C33.4084 14.4461 33.4373 14.5762 33.2061 14.0053C33.4156 13.9402 33.618 13.8174 33.7408 13.8029C34.0154 13.774 34.0299 14.0342 34.6008 14.0342C35.1717 14.0342 36.4074 13.8824 36.6604 13.6295C36.9133 13.3766 36.9928 13.2898 36.9928 13.0658C36.9928 12.8418 36.8627 12.3793 36.617 12.1047C36.3713 11.8301 35.3234 11.6928 34.7092 11.6133C34.0949 11.5338 34.0082 11.6133 33.8492 11.7145C33.5963 11.8734 33.5818 13.326 33.5818 13.326L32.982 13.3404C32.5918 12.3793 32.0498 10.4426 31.2043 8.91777C30.2793 7.25566 29.3109 6.73535 28.9062 6.60527C28.5088 6.48242 28.1475 6.3957 25.4375 6.12109C22.6697 5.83203 20.4656 5.7959 18.5 5.7959C16.5344 5.7959 14.3303 5.83926 11.5625 6.12109C8.85254 6.40293 8.49121 6.48242 8.09375 6.60527C7.69629 6.72813 6.7207 7.25566 5.7957 8.91777C4.9502 10.4426 4.4082 12.3793 4.01797 13.3404L3.41816 13.326C3.41816 13.326 3.41094 11.8734 3.15078 11.7145C2.9918 11.6133 2.90508 11.5266 2.29082 11.6133C1.67656 11.7 0.628711 11.8301 0.383008 12.1047C0.137305 12.3793 0.00722656 12.8418 0.00722656 13.0658C0.00722656 13.2898 0.0867187 13.3838 0.339648 13.6295C0.592578 13.8824 1.82832 14.0342 2.39922 14.0342C2.97012 14.0342 2.98457 13.774 3.25918 13.8029C3.38203 13.8174 3.5916 13.9402 3.79395 14.0053C3.55547 14.5762 3.5916 14.4461 2.3125 15.3205C1.04785 16.1877 0.48418 16.6357 0.404687 16.8092C0.289062 17.0477 0 19.2156 0 21.4342C0 23.6527 0.158984 25.6473 0.158984 26.3555C0.158984 26.6518 0.158984 27.1721 0.224023 27.6707C0.267383 27.967 0.332422 28.2561 0.448047 28.4801C0.643164 28.8775 0.823828 28.9137 1.56816 28.8775C2.52207 28.8342 3.90234 28.8775 5.32598 28.9354C6.27988 28.9715 7.25547 29.0076 8.12266 29.0293C10.2906 29.0727 9.65469 28.7113 10.5797 28.7258C11.5047 28.7402 15.1541 28.892 18.4928 28.892C21.8314 28.892 25.4881 28.7402 26.4059 28.7258C27.3309 28.7113 26.6949 29.0727 28.8629 29.0293C29.7301 29.0148 30.7057 28.9715 31.6596 28.9354C33.0832 28.8848 34.4707 28.8342 35.4174 28.8775C36.1617 28.9137 36.3424 28.8775 36.5375 28.4801C36.6459 28.2561 36.7182 27.967 36.7615 27.6707C36.8338 27.1721 36.8266 26.6518 36.8266 26.3555C36.841 25.6545 37 23.6527 37 21.4342ZM6.2293 10.4932C6.57617 9.68379 7.6168 8.05781 8.12266 7.76875C8.24551 7.69648 9.32227 7.35684 12.0178 7.17617C14.4965 7.00996 17.2354 6.94492 18.5072 6.94492C19.7791 6.94492 22.518 7.00996 24.9967 7.17617C27.685 7.35684 28.7762 7.68926 28.8918 7.76875C29.5422 8.2168 30.4383 9.68379 30.7852 10.4932C31.132 11.3025 31.5945 12.8924 31.5078 13.1092C31.4211 13.326 31.5945 13.4344 30.4238 13.3404C29.2604 13.2537 21.9543 13.1598 18.5145 13.1598C15.0818 13.1598 7.77578 13.2537 6.60508 13.3404C5.43438 13.4271 5.60781 13.326 5.52109 13.1092C5.41992 12.8924 5.88242 11.3098 6.2293 10.4932ZM8.88867 19.5408C8.36836 19.6709 8.05762 19.9527 7.40723 19.9455C6.75684 19.9455 5.00078 19.6492 4.625 19.6348C4.24922 19.6203 3.9168 19.8877 3.72168 19.9383C3.52656 19.9889 3.14355 19.8516 2.56543 19.6709C1.9873 19.4902 1.64766 19.5408 1.45977 18.7531C1.26465 17.9727 1.45977 16.8525 1.45977 16.8525C2.70996 16.7947 3.9168 16.9104 6.17871 17.5463C8.44063 18.1822 9.69805 19.4035 9.69805 19.4035C9.69805 19.4035 9.40898 19.4107 8.88867 19.5408ZM25.8855 25.2354C24.8521 25.3727 20.5234 25.4088 18.5 25.4088C16.4766 25.4088 12.1479 25.3654 11.1145 25.2354C10.0594 25.098 8.68633 23.8334 9.63301 22.8289C10.9121 21.4631 10.6736 21.5064 13.5787 21.1307C16.0936 20.8055 18.0014 20.791 18.5 20.791C18.9914 20.791 20.9064 20.8127 23.4213 21.1307C26.3264 21.5064 26.0879 21.4631 27.367 22.8289C28.3137 23.8334 26.9406 25.098 25.8855 25.2354ZM35.5402 18.7604C35.3451 19.5408 35.0127 19.4975 34.4346 19.6781C33.8564 19.8588 33.4734 19.9889 33.2783 19.9455C33.0832 19.9021 32.7508 19.6348 32.375 19.642C31.9992 19.6564 30.2432 19.9527 29.5928 19.9527C28.9424 19.9527 28.6316 19.6781 28.1113 19.548C27.591 19.418 27.302 19.418 27.302 19.418C27.302 19.418 28.5521 18.1895 30.8213 17.5607C33.0832 16.9248 34.29 16.8092 35.5402 16.867C35.5402 16.8525 35.7354 17.9727 35.5402 18.7604Z" fill="white"/>
</svg>
